<svg width="55" height="55" viewBox="0 0 55 55" fill="none" xmlns="http://www.w3.org/2000/svg">
<g clip-path="url(#clip0_2932_11655)">
<path d="M49.5 0H5.5C2.46243 0 0 2.46243 0 5.5V49.5C0 52.5376 2.46243 55 5.5 55H49.5C52.5376 55 55 52.5376 55 49.5V5.5C55 2.46243 52.5376 0 49.5 0Z" fill="#FFF000" style="fill:#FFF000;fill:color(display-p3 1.0000 0.9412 0.0000);fill-opacity:1;"/>
<path d="M49.5 0H5.5C2.46243 0 0 2.46243 0 5.5V49.5C0 52.5376 2.46243 55 5.5 55H49.5C52.5376 55 55 52.5376 55 49.5V5.5C55 2.46243 52.5376 0 49.5 0Z" fill="#FFF000" style="fill:#FFF000;fill:color(display-p3 1.0000 0.9412 0.0000);fill-opacity:1;"/>
<path fill-rule="evenodd" clip-rule="evenodd" d="M18.1786 34.2163H16.3386V20.7156H17.6597C21.3702 20.7156 23.4955 21.7665 23.4955 27.2629C23.4955 31.6214 22.7432 34.2163 18.1786 34.2163ZM38.7132 27.1591V30.6615H41.0508V33.6974C40.4021 34.0087 39.362 34.2422 38.4538 34.2422C35.0807 34.2422 33.4741 31.8292 33.4741 27.2111C33.4741 23.038 34.9789 20.6768 37.2344 20.6768C38.9988 20.6768 39.855 21.8054 40.2981 23.9202L46.6207 22.8562C45.7169 18.3935 42.5252 16.0193 37.5975 16.0193C33.3094 16.0193 30.1761 17.729 28.4686 20.8568C26.5019 17.4214 22.5591 16.4519 16.9352 16.4519H8.01172V20.7156H10.241V38.4717H17.5818C22.3758 38.4717 26.3052 37.3585 28.3572 34.0722C29.844 37.0022 32.6123 38.8868 37.0007 38.8868C39.1803 38.8868 41.336 38.2511 42.7328 37.3558L43.4595 38.4717H47.0358V27.1591H38.7132Z" fill="black" style="fill:black;fill-opacity:1;"/>
</g>
<defs>
<clipPath id="clip0_2932_11655">
<rect width="55" height="55" fill="white" style="fill:white;fill-opacity:1;"/>
</clipPath>
</defs>
</svg>
