<svg width="159" height="55" viewBox="0 0 159 55" fill="none" xmlns="http://www.w3.org/2000/svg">
<path d="M152.705 14.5206C154.215 14.5206 155.422 15.7424 155.422 17.2743C155.422 18.8061 154.215 20.0341 152.705 20.0341C151.196 20.0341 150.029 18.8215 150.029 17.2743C150.029 15.727 151.226 14.5206 152.705 14.5206ZM152.705 19.6258C153.994 19.6258 154.98 18.6004 154.98 17.2743C154.98 15.9481 153.994 14.9289 152.705 14.9289C151.416 14.9289 150.477 15.9603 150.477 17.2743C150.477 18.5882 151.447 19.6258 152.705 19.6258ZM151.809 15.7946H152.862C153.384 15.7946 153.749 16.1445 153.749 16.6756C153.749 17.1146 153.47 17.3878 153.197 17.4584V17.4738C153.197 17.4738 153.227 17.5106 153.295 17.6396L153.863 18.7539H153.393L152.801 17.5567H152.233V18.7539H151.809V15.7946ZM152.788 17.2221C153.108 17.2221 153.31 17.0164 153.31 16.6756C153.31 16.3349 153.104 16.1537 152.788 16.1537H152.236V17.2221H152.788Z" fill="#ED2764" style="fill:#ED2764;fill:color(display-p3 0.9294 0.1529 0.3922);fill-opacity:1;"/>
<path d="M6.63281 20.8844H15.7816L15.0665 48.2739H6.82923L6.63281 20.8844Z" fill="#ED2764" style="fill:#ED2764;fill:color(display-p3 0.9294 0.1529 0.3922);fill-opacity:1;"/>
<path d="M29.7749 7.48744L29.5754 21.0686C31.6286 20.341 33.8137 19.9757 35.9989 19.942C38.5155 19.942 40.9983 20.7371 43.0177 22.2259C46.7926 24.9428 48.7138 28.949 48.7138 34.2507C48.7138 39.1195 47.0596 42.963 43.7788 45.7443C40.9308 48.1941 37.4198 49.422 33.3165 49.422C29.8731 49.422 26.4941 48.5594 23.5141 46.871C22.5872 46.3399 21.7248 45.7443 20.8993 45.0812C21.2952 43.359 21.4609 41.603 21.4302 39.8471L21.065 13.9772C21.065 12.2887 20.8993 10.5972 20.6016 8.9088L29.7749 7.48438V7.48744ZM29.2531 28.8784L29.3176 40.593C30.5575 41.3759 31.96 41.7995 33.427 41.7995C35.6459 41.8977 37.7329 40.8202 39.0065 38.9936C39.9518 37.6552 40.4428 36.0251 40.3753 34.3612C40.3753 32.111 39.6909 30.4133 38.319 29.2376C37.0454 28.16 35.4495 27.5737 33.7861 27.6074C32.1871 27.6412 30.6219 28.0649 29.2501 28.8815L29.2531 28.8784Z" fill="#ED2764" style="fill:#ED2764;fill:color(display-p3 0.9294 0.1529 0.3922);fill-opacity:1;"/>
<path d="M65.6032 19.7731C68.2794 19.7731 70.9219 20.5559 73.1715 21.9926C77.7075 24.863 79.9571 29.0411 79.9571 34.4901C79.9571 36.7096 79.4353 38.8954 78.4226 40.8847C77.0845 43.6261 74.8993 45.8763 72.1924 47.313C69.9735 48.5195 67.4938 49.1396 64.9495 49.1396C60.4473 49.1396 56.7952 47.5095 54.0208 44.2769C51.8018 41.6675 50.6295 38.306 50.6939 34.88C50.6295 30.7019 52.3573 26.6896 55.4233 23.8499C58.1639 21.173 61.8161 19.7056 65.6002 19.77L65.6032 19.7731ZM65.6032 27.3434C63.547 27.279 61.592 28.289 60.3828 29.9528C59.3394 31.322 58.7839 32.989 58.7532 34.6835C58.7194 36.5101 59.4069 38.2722 60.613 39.6107C61.6902 40.9799 63.3537 41.7657 65.0815 41.7657C66.4841 41.7657 67.8528 41.2776 68.9301 40.3628C70.7899 38.9599 71.8978 36.7403 71.8334 34.3919C71.8978 32.2368 71.017 30.1831 69.4518 28.7464C68.4083 27.8009 67.0058 27.279 65.6032 27.3434Z" fill="#ED2764" style="fill:#ED2764;fill:color(display-p3 0.9294 0.1529 0.3922);fill-opacity:1;"/>
<path d="M100.182 22.8123L100.148 29.4217H93.2335L93.0708 35.9575L93.037 37.2285C93.037 38.5332 93.2304 39.4787 93.6508 40.0681C94.2002 40.9829 95.2007 41.5048 96.235 41.5048C97.3337 41.4403 98.4324 41.1119 99.4022 40.59L101.501 46.039C99.0462 47.8656 96.6216 48.7804 94.1664 48.7804C91.8401 48.8142 89.5782 47.9331 87.8657 46.3337C86.2177 44.8663 85.2816 42.745 85.3123 40.5255V29.4217H81.6602L81.6939 22.8123H85.5732L85.6069 18.5421C85.6714 16.9857 85.6069 15.3985 85.4136 13.8421L93.6386 13.9403C93.6386 14.3701 93.6048 15.067 93.5404 16.0248C93.5404 16.3563 93.5066 17.0839 93.4759 18.2412L93.347 22.8092H100.179L100.182 22.8123Z" fill="#ED2764" style="fill:#ED2764;fill:color(display-p3 0.9294 0.1529 0.3922);fill-opacity:1;"/>
<path d="M120.784 22.8123L120.75 29.4217H114.109L113.946 35.9606L113.913 37.2315C113.913 38.5362 114.109 39.4817 114.533 40.0712C115.088 40.986 116.098 41.5079 117.141 41.5079C118.249 41.4434 119.36 41.1149 120.339 40.593L122.46 46.0421C119.98 47.8687 117.5 48.7835 115.054 48.7835C112.706 48.8172 110.423 47.9362 108.692 46.3368C106.995 44.8694 106.05 42.7481 106.179 40.5286V29.4217H102.266L102.299 22.8123H106.179L106.212 18.5267C106.277 16.9764 106.212 15.3954 106.019 13.8452L114.244 13.9434C114.244 14.3732 114.21 15.0639 114.146 16.0217C114.146 16.3502 114.112 17.0777 114.081 18.232L113.952 22.8153H120.784V22.8123Z" fill="#ED2764" style="fill:#ED2764;fill:color(display-p3 0.9294 0.1529 0.3922);fill-opacity:1;"/>
<path d="M125.3 22.1891C128.823 20.8199 132.509 20.1016 136.293 20.0341C139.654 20.0341 142.459 20.8169 144.708 22.3518C146.568 23.6258 147.578 25.5169 147.839 27.9973C147.872 28.3565 147.903 28.7464 147.903 29.1731L147.968 38.2784C148.001 42.1925 148.652 45.2623 149.858 47.4788L142.324 49.4036L141.246 46.564C139.258 48.2616 136.744 49.1734 134.136 49.1089C130.744 49.1089 128.068 47.8349 126.11 45.3237C124.643 43.4972 123.86 41.2439 123.827 38.9292C123.762 36.2215 124.968 33.6091 127.089 31.9145C129.112 30.2169 131.72 29.3358 134.363 29.4033C136.45 29.4371 138.472 29.9252 140.366 30.7725C140.007 27.8039 138.211 26.3335 135.016 26.3335C132.374 26.3672 129.796 26.9198 127.384 27.9636L125.297 22.1891H125.3ZM136.001 34.7173C134.826 34.6835 133.684 35.1747 132.936 36.0865C132.217 36.8048 131.794 37.7841 131.794 38.8279C131.828 40.0036 132.316 41.1119 133.196 41.8947C133.948 42.6437 134.992 43.0704 136.066 43.0367C137.306 43.0704 138.481 42.5148 139.295 41.6C139.914 40.9154 140.274 40.0006 140.24 39.055C140.274 37.8793 139.847 36.7373 139 35.9238C138.217 35.1409 137.106 34.6835 135.998 34.7173H136.001Z" fill="#ED2764" style="fill:#ED2764;fill:color(display-p3 0.9294 0.1529 0.3922);fill-opacity:1;"/>
<path d="M15.9565 18.0171H15.4317C8.63688 18.0171 6.56836 14.2228 6.56836 14.2228V7.72076C6.56836 7.72076 8.86706 9.93108 15.266 9.93108H15.9565V18.0171Z" fill="#ED2764" style="fill:#ED2764;fill:color(display-p3 0.9294 0.1529 0.3922);fill-opacity:1;"/>
</svg>
