<svg width="40" height="40" viewBox="0 0 40 40" fill="none" xmlns="http://www.w3.org/2000/svg">
<path d="M40 38.0887C40 39.2035 39.0952 40.0594 37.9869 39.9968C26.0039 39.3162 13.9961 39.3162 2.01308 39.9968C0.904848 40.0594 0 39.2077 0 38.0887V1.91128C0 0.796517 0.904848 -0.0593833 2.01308 0.00324361C13.9961 0.683789 26.0039 0.683789 37.9869 0.00324361C39.0952 -0.0593833 40 0.792342 40 1.91128V38.0887Z" fill="#FFF200" style="fill:#FFF200;fill:color(display-p3 1.0000 0.9490 0.0000);fill-opacity:1;"/>
<path d="M12.7818 30.3116H11.3984V20.1783H12.3943C15.1776 20.1783 16.7693 20.9658 16.7693 25.095C16.7693 28.3616 16.2068 30.3116 12.7818 30.3116ZM28.7568 25.0158V27.6491H30.5068V29.9283C30.0193 30.1616 29.2359 30.3366 28.5568 30.3366C26.0234 30.3366 24.8234 28.5283 24.8234 25.0616C24.8234 21.9283 25.9526 20.1533 27.6401 20.1533C28.9693 20.1533 29.6109 21.0033 29.9443 22.5908L34.6859 21.7908C34.0109 18.445 31.6151 16.6616 27.9151 16.6616C24.4568 16.6616 21.9901 18.145 20.7901 20.8408C19.4276 17.8075 16.3568 16.9783 11.8484 16.9783H5.14844V20.1825H6.82343V33.5075H12.3318C16.1859 33.5075 19.2984 32.5533 20.7276 29.6616C21.7693 32.1741 23.9068 33.8241 27.4651 33.8241C29.1026 33.8241 30.7193 33.345 31.7651 32.6741L32.3109 33.5075H34.9943V25.02H28.7484L28.7568 25.0158Z" fill="black" style="fill:black;fill-opacity:1;"/>
<path d="M5.32031 6.24495H7.50365V7.33662C8.00781 6.69079 8.66615 6.09912 9.77448 6.09912C10.7786 6.09912 11.5411 6.54495 11.9453 7.31995C12.6203 6.52829 13.4245 6.09912 14.4745 6.09912C16.0995 6.09912 17.0745 7.07412 17.0745 8.92829V13.945H14.8911V9.64912C14.8911 8.61579 14.4328 8.08245 13.612 8.08245C12.7911 8.08245 12.2912 8.61579 12.2912 9.64912V13.945H10.1078V9.64912C10.1078 8.61579 9.64948 8.08245 8.82865 8.08245C8.00782 8.08245 7.50781 8.61579 7.50781 9.64912V13.945H5.32448V6.24495H5.32031Z" fill="black" style="fill:black;fill-opacity:1;"/>
<path d="M22.9529 6.24489H25.2237L22.2654 14.1324C21.6779 15.6991 21.0445 16.2866 19.7362 16.2866C18.9445 16.2866 18.357 16.0866 17.7945 15.7532L18.5279 14.1741C18.8154 14.3449 19.1737 14.4741 19.4612 14.4741C19.8362 14.4741 20.0362 14.3574 20.2237 13.9699L17.207 6.24072H19.5195L21.2737 11.4866L22.9529 6.24072V6.24489Z" fill="black" style="fill:black;fill-opacity:1;"/>
<g clip-path="url(#clip0_2978_9543)">
<path d="M36.7104 32.9071C36.7104 32.6996 36.5321 32.6604 36.4804 32.6604H36.0938V33.4171H36.2579V33.1621H36.4221L36.5538 33.4171H36.7346L36.5779 33.1212C36.6104 33.1046 36.7096 33.0487 36.7096 32.9071H36.7104ZM36.4146 33.0387H36.2579V32.7837H36.4146C36.4638 32.7837 36.5213 32.8287 36.5213 32.9071C36.5213 32.9854 36.4546 33.0387 36.4146 33.0387Z" fill="black" style="fill:black;fill-opacity:1;"/>
<path d="M36.388 32.428C36.7339 32.428 37.0155 32.7097 37.0155 33.0555C37.0155 33.4013 36.7339 33.683 36.388 33.683C36.0422 33.683 35.7605 33.4013 35.7605 33.0555C35.7605 32.7097 36.0422 32.428 36.388 32.428ZM36.388 32.2222C35.928 32.2222 35.5547 32.5955 35.5547 33.0555C35.5547 33.5155 35.928 33.8888 36.388 33.8888C36.848 33.8888 37.2214 33.5155 37.2214 33.0555C37.2214 32.5955 36.848 32.2222 36.388 32.2222Z" fill="black" style="fill:black;fill-opacity:1;"/>
</g>
<defs>
<clipPath id="clip0_2978_9543">
<rect width="1.66667" height="1.66667" fill="white" style="fill:white;fill-opacity:1;" transform="translate(35.5547 32.2222)"/>
</clipPath>
</defs>
</svg>
