<svg width="92" height="44" viewBox="0 0 92 44" fill="none" xmlns="http://www.w3.org/2000/svg">
<mask id="mask0_2986_26591" style="mask-type:luminance" maskUnits="userSpaceOnUse" x="0" y="0" width="92" height="44">
<path fill-rule="evenodd" clip-rule="evenodd" d="M0 0H91.0306V43.9089H0V0Z" fill="white" style="fill:white;fill-opacity:1;"/>
</mask>
<g mask="url(#mask0_2986_26591)">
<path fill-rule="evenodd" clip-rule="evenodd" d="M91.031 40.881C91.031 42.6536 89.6008 44.0094 87.8517 43.903C59.6517 42.2347 31.3793 42.2347 3.17924 43.903C1.4306 44.0094 0 42.6536 0 40.881V3.02783C0.000406189 1.25563 1.4306 -0.100519 3.17924 0.00585391C31.3793 1.67414 59.6517 1.67414 87.8517 0.00585391C89.6008 -0.100519 91.031 1.25563 91.031 3.02783V40.881Z" fill="black" style="fill:black;fill-opacity:1;"/>
</g>
<path fill-rule="evenodd" clip-rule="evenodd" d="M50.362 29.0829H48.4293V14.7636H49.8205C53.7134 14.7636 55.9353 15.8775 55.9353 21.7107C55.9353 26.3267 55.151 29.0829 50.362 29.0829V29.0829ZM72.6926 21.5974V25.3163H75.1383V28.5355C74.4567 28.8657 73.3645 29.1109 72.4124 29.1109C68.874 29.1109 67.1936 26.553 67.1936 21.6541C67.1936 17.2271 68.7713 14.7164 71.1333 14.7164C72.9912 14.7164 73.8872 15.9148 74.3539 18.1614L80.9821 17.0287C80.0394 12.2998 76.6879 9.7793 71.5159 9.7793C66.6802 9.7793 63.2353 11.8751 61.5553 15.6885C59.6507 11.4028 55.3565 10.2327 49.0549 10.2327H39.6914V14.7636H42.0347V33.5945H49.7365C55.1229 33.5945 59.4736 32.245 61.4712 28.1576C62.9274 31.7069 65.9145 34.0381 70.8904 34.0381C73.1776 34.0381 75.4368 33.3588 76.9028 32.4146L77.6684 33.5945H81.4208V21.5974H72.6926Z" fill="#FFF200" style="fill:#FFF200;fill:color(display-p3 1.0000 0.9490 0.0000);fill-opacity:1;"/>
<path fill-rule="evenodd" clip-rule="evenodd" d="M9.16797 17.2039H12.2205V18.7473C12.9236 17.8335 13.8477 17.001 15.394 17.001C16.7999 17.001 17.8641 17.6306 18.4262 18.7268C19.3706 17.6101 20.4954 17.001 21.9613 17.001C24.2307 17.001 25.5963 18.3814 25.5963 21.0013V28.0884H22.5438V22.0165C22.5438 20.5544 21.9012 19.8028 20.7561 19.8028C19.6115 19.8028 18.9084 20.5544 18.9084 22.0165V28.0884H15.8559V22.0165C15.8559 20.5544 15.2129 19.8028 14.0682 19.8028C12.9236 19.8028 12.2205 20.5544 12.2205 22.0165V28.0884H9.16797V17.2039Z" fill="#FFF200" style="fill:#FFF200;fill:color(display-p3 1.0000 0.9490 0.0000);fill-opacity:1;"/>
<path fill-rule="evenodd" clip-rule="evenodd" d="M33.8109 17.2041H36.9841L32.8471 28.3531C32.0237 30.566 31.1398 31.3989 29.3124 31.3989C28.2076 31.3989 27.3842 31.1143 26.6011 30.6474L27.6251 28.4135C28.0268 28.6575 28.5289 28.8402 28.9306 28.8402C29.4529 28.8402 29.7336 28.678 29.9948 28.1297L25.7773 17.2041H29.011L31.4611 24.6161L33.8109 17.2041Z" fill="#FFF200" style="fill:#FFF200;fill:color(display-p3 1.0000 0.9490 0.0000);fill-opacity:1;"/>
</svg>
