<svg width="40" height="33" viewBox="0 0 40 33" fill="none" xmlns="http://www.w3.org/2000/svg">
<path opacity="0.8" d="M9.85285 32.3126L0.625 16.4688M9.85285 32.3126H29.9863M9.85285 32.3126L8.1748 18.9705M9.85285 32.3126L27.4695 28.9771M0.625 16.4688L9.85285 0.625M0.625 16.4688L8.1748 18.9705M9.85285 0.625H29.9863M9.85285 0.625L26.6305 8.96379M9.85285 0.625L8.1748 18.9705M29.9863 0.625L39.2142 16.4688M29.9863 0.625L26.6305 8.96379M39.2142 16.4688L29.9863 32.3126M39.2142 16.4688L26.6305 8.96379M39.2142 16.4688L27.4695 28.9771M29.9863 32.3126L27.4695 28.9771M26.6305 8.96379L8.1748 18.9705M26.6305 8.96379L27.4695 28.9771M8.1748 18.9705L27.4695 28.9771" stroke="url(#paint0_linear_2884_6324)" stroke-width="1.25" stroke-linejoin="round"/>
<defs>
<linearGradient id="paint0_linear_2884_6324" x1="8.625" y1="0.625001" x2="31.625" y2="32.625" gradientUnits="userSpaceOnUse">
<stop stop-color="#01E1B8" style="stop-color:#01E1B8;stop-color:color(display-p3 0.0039 0.8824 0.7216);stop-opacity:1;"/>
<stop offset="0.313265" stop-color="#01CCD4" style="stop-color:#01CCD4;stop-color:color(display-p3 0.0055 0.7981 0.8304);stop-opacity:1;"/>
<stop offset="1" stop-color="#02AAFF" style="stop-color:#02AAFF;stop-color:color(display-p3 0.0078 0.6667 1.0000);stop-opacity:1;"/>
</linearGradient>
</defs>
</svg>
