<svg width="36" height="36" viewBox="0 0 36 36" fill="none" xmlns="http://www.w3.org/2000/svg">
<g clip-path="url(#clip0_2986_26715)">
<path d="M4.34375 6.43408H31.6562C31.6562 6.43408 34.5312 6.43408 34.5312 9.30908V26.5591C34.5312 26.5591 34.5312 29.4341 31.6562 29.4341H4.34375C4.34375 29.4341 1.46875 29.4341 1.46875 26.5591V9.30908C1.46875 9.30908 1.46875 6.43408 4.34375 6.43408Z" fill="#FFF9E2" style="fill:#FFF9E2;fill:color(display-p3 1.0000 0.9765 0.8863);fill-opacity:1;"/>
<path d="M4.34375 6.43262C3.58125 6.43262 2.84999 6.73552 2.31082 7.27469C1.77165 7.81385 1.46875 8.54512 1.46875 9.30762V26.5576C1.46875 27.3201 1.77165 28.0514 2.31082 28.5905C2.84999 29.1297 3.58125 29.4326 4.34375 29.4326H5.11713L28.1171 6.43262H4.34375Z" fill="white" style="fill:white;fill-opacity:1;"/>
<path d="M4.34375 6.43408H31.6562C31.6562 6.43408 34.5312 6.43408 34.5312 9.30908V26.5591C34.5312 26.5591 34.5312 29.4341 31.6562 29.4341H4.34375C4.34375 29.4341 1.46875 29.4341 1.46875 26.5591V9.30908C1.46875 9.30908 1.46875 6.43408 4.34375 6.43408Z" stroke="black" style="stroke:black;stroke-opacity:1;" stroke-width="1.5" stroke-linecap="round" stroke-linejoin="round"/>
<path d="M33.6855 7.27051L18.001 20.0901L2.31641 7.27051" stroke="black" style="stroke:black;stroke-opacity:1;" stroke-width="1.5" stroke-linecap="round" stroke-linejoin="round"/>
</g>
<defs>
<clipPath id="clip0_2986_26715">
<rect width="36" height="36" fill="white" style="fill:white;fill-opacity:1;"/>
</clipPath>
</defs>
</svg>
