<svg width="36" height="36" viewBox="0 0 36 36" fill="none" xmlns="http://www.w3.org/2000/svg">
<g clip-path="url(#clip0_2986_26740)">
<path d="M31.5142 25.475C31.4479 25.7995 31.2717 26.0911 31.0153 26.3006C30.7589 26.5102 30.438 26.6247 30.1069 26.625H9.31917C9.1061 26.6248 8.89574 26.5773 8.7033 26.4858C8.51086 26.3944 8.34116 26.2613 8.20647 26.0962C8.07178 25.9311 7.97547 25.7381 7.92452 25.5313C7.87357 25.3244 7.86924 25.1088 7.91186 24.9L10.9062 10.525C10.9724 10.2005 11.1486 9.90891 11.405 9.69938C11.6614 9.48984 11.9823 9.37526 12.3135 9.375H33.0954C33.3085 9.37517 33.5188 9.4227 33.7113 9.51415C33.9037 9.60561 34.0734 9.73869 34.2081 9.90379C34.3428 10.0689 34.4391 10.2619 34.4901 10.4687C34.541 10.6756 34.5453 10.8912 34.5027 11.1L31.5142 25.475Z" fill="#FFF9E2" style="fill:#FFF9E2;fill:color(display-p3 1.0000 0.9765 0.8863);fill-opacity:1;"/>
<path d="M12.3135 9.375C11.9823 9.37526 11.6614 9.48984 11.405 9.69938C11.1486 9.90891 10.9724 10.2005 10.9062 10.525L7.91186 24.9C7.86924 25.1088 7.87357 25.3244 7.92452 25.5313C7.97547 25.7381 8.07178 25.9311 8.20647 26.0962C8.34116 26.2613 8.51086 26.3944 8.7033 26.4858C8.89574 26.5773 9.1061 26.6248 9.31917 26.625H10.278L27.528 9.375H12.3135Z" fill="white" style="fill:white;fill-opacity:1;"/>
<path d="M31.5142 25.475C31.4479 25.7995 31.2717 26.0911 31.0153 26.3006C30.7589 26.5102 30.438 26.6247 30.1069 26.625H9.31917C9.1061 26.6248 8.89574 26.5773 8.7033 26.4858C8.51086 26.3944 8.34116 26.2613 8.20647 26.0962C8.07178 25.9311 7.97547 25.7381 7.92452 25.5313C7.87357 25.3244 7.86924 25.1088 7.91186 24.9L10.9062 10.525C10.9724 10.2005 11.1486 9.90891 11.405 9.69938C11.6614 9.48984 11.9823 9.37526 12.3135 9.375H33.0954C33.3085 9.37517 33.5188 9.4227 33.7113 9.51415C33.9037 9.60561 34.0734 9.73869 34.2081 9.90379C34.3428 10.0689 34.4391 10.2619 34.4901 10.4687C34.541 10.6756 34.5453 10.8912 34.5027 11.1L31.5142 25.475Z" stroke="black" style="stroke:black;stroke-opacity:1;" stroke-width="1.5" stroke-linecap="round" stroke-linejoin="round"/>
<path d="M11.4258 9.67969L18.7815 17.6017C19.2539 18.1105 19.8946 18.4311 20.585 18.5042C21.2754 18.5774 21.969 18.3983 22.5377 17.9999L34.1742 9.85506" stroke="black" style="stroke:black;stroke-opacity:1;" stroke-width="1.5" stroke-linecap="round" stroke-linejoin="round"/>
<path d="M1.46875 10.8125H7.21875" stroke="black" style="stroke:black;stroke-opacity:1;" stroke-width="1.5" stroke-linecap="round" stroke-linejoin="round"/>
<path d="M1.46875 15.125H5.78125" stroke="black" style="stroke:black;stroke-opacity:1;" stroke-width="1.5" stroke-linecap="round" stroke-linejoin="round"/>
<path d="M1.46875 19.4375H4.34375" stroke="black" style="stroke:black;stroke-opacity:1;" stroke-width="1.5" stroke-linecap="round" stroke-linejoin="round"/>
</g>
<defs>
<clipPath id="clip0_2986_26740">
<rect width="36" height="36" fill="white" style="fill:white;fill-opacity:1;"/>
</clipPath>
</defs>
</svg>
