<svg width="36" height="36" viewBox="0 0 36 36" fill="none" xmlns="http://www.w3.org/2000/svg">
<path d="M3.66406 1.51611H29.5391C29.5391 1.51611 31.6953 1.51611 31.6953 3.67236V19.4849C31.6953 19.4849 31.6953 21.6411 29.5391 21.6411H3.66406C3.66406 21.6411 1.50781 21.6411 1.50781 19.4849V3.67236C1.50781 3.67236 1.50781 1.51611 3.66406 1.51611Z" fill="#FFF9E2" style="fill:#FFF9E2;fill:color(display-p3 1.0000 0.9765 0.8863);fill-opacity:1;"/>
<path d="M3.66406 1.51611C3.09219 1.51611 2.54374 1.74329 2.13936 2.14766C1.73499 2.55204 1.50781 3.10049 1.50781 3.67236V19.4849C1.50781 20.0567 1.73499 20.6052 2.13936 21.0096C2.54374 21.4139 3.09219 21.6411 3.66406 21.6411H5.58456L25.7096 1.51611H3.66406Z" fill="white" style="fill:white;fill-opacity:1;"/>
<path d="M14.4453 21.6411H3.66406C3.09219 21.6411 2.54374 21.4139 2.13936 21.0096C1.73499 20.6052 1.50781 20.0567 1.50781 19.4849V3.67236C1.50781 3.10049 1.73499 2.55204 2.13936 2.14766C2.54374 1.74329 3.09219 1.51611 3.66406 1.51611H29.5391C30.1109 1.51611 30.6594 1.74329 31.0638 2.14766C31.4681 2.55204 31.6953 3.10049 31.6953 3.67236V14.4536" stroke="black" style="stroke:black;stroke-opacity:1;" stroke-width="1.5" stroke-linecap="round" stroke-linejoin="round"/>
<path d="M31.073 2.15723L16.6017 13.7349L2.12891 2.15723" stroke="black" style="stroke:black;stroke-opacity:1;" stroke-width="1.5" stroke-linecap="round" stroke-linejoin="round"/>
<path d="M25.8086 34.606C27.5145 34.606 29.182 34.1001 30.6004 33.1524C32.0188 32.2047 33.1242 30.8576 33.7771 29.2816C34.4299 27.7056 34.6007 25.9714 34.2679 24.2983C33.9351 22.6252 33.1136 21.0884 31.9074 19.8822C30.7012 18.6759 29.1643 17.8545 27.4912 17.5217C25.8182 17.1889 24.084 17.3597 22.5079 18.0125C20.9319 18.6653 19.5849 19.7708 18.6372 21.1892C17.6894 22.6075 17.1836 24.2751 17.1836 25.981C17.1836 28.2685 18.0923 30.4623 19.7098 32.0798C21.3273 33.6973 23.5211 34.606 25.8086 34.606Z" fill="#FFF000" style="fill:#FFF000;fill:color(display-p3 1.0000 0.9412 0.0000);fill-opacity:1;"/>
<path d="M25.8058 17.356C24.0518 17.3581 22.3401 17.895 20.8991 18.895C19.4581 19.895 18.3562 21.3105 17.7404 22.9528C17.1246 24.5952 17.0242 26.3862 17.4525 28.0871C17.8808 29.788 18.8175 31.3179 20.1377 32.4727L32.2961 20.3143C31.4891 19.3853 30.4921 18.6403 29.3724 18.13C28.2526 17.6196 27.0363 17.3556 25.8058 17.356Z" fill="#FFF9E2" style="fill:#FFF9E2;fill:color(display-p3 1.0000 0.9765 0.8863);fill-opacity:1;"/>
<path d="M25.8086 34.606C27.5145 34.606 29.182 34.1001 30.6004 33.1524C32.0188 32.2047 33.1242 30.8576 33.7771 29.2816C34.4299 27.7056 34.6007 25.9714 34.2679 24.2983C33.9351 22.6252 33.1136 21.0884 31.9074 19.8822C30.7012 18.6759 29.1643 17.8545 27.4912 17.5217C25.8182 17.1889 24.084 17.3597 22.5079 18.0125C20.9319 18.6653 19.5849 19.7708 18.6372 21.1892C17.6894 22.6075 17.1836 24.2751 17.1836 25.981C17.1836 28.2685 18.0923 30.4623 19.7098 32.0798C21.3273 33.6973 23.5211 34.606 25.8086 34.606Z" stroke="black" style="stroke:black;stroke-opacity:1;" stroke-width="1.5" stroke-linecap="round" stroke-linejoin="round"/>
<path d="M29.6525 23.48L25.4837 29.0489C25.391 29.1723 25.2729 29.2744 25.1373 29.3483C25.0017 29.4221 24.8518 29.466 24.6978 29.4769C24.5438 29.4878 24.3892 29.4655 24.2446 29.4115C24.0999 29.3575 23.9686 29.273 23.8594 29.1639L21.7031 27.0076" stroke="black" style="stroke:black;stroke-opacity:1;" stroke-width="1.5" stroke-linecap="round" stroke-linejoin="round"/>
</svg>
