<svg xmlns="http://www.w3.org/2000/svg" xmlns:xlink="http://www.w3.org/1999/xlink" width="237" height="69.222" viewBox="0 0 237 69.222">
  <defs>
    <clipPath id="clip-path">
      <rect id="Rectangle_1" data-name="Rectangle 1" width="237" height="41.99" fill="#fff200"/>
    </clipPath>
  </defs>
  <g id="Group_2832" data-name="Group 2832" transform="translate(-140 -38)">
    <g id="Group_2190" data-name="Group 2190" transform="translate(140 38)">
      <g id="Group_1" data-name="Group 1" transform="translate(0 0)" clip-path="url(#clip-path)">
        <path id="Path_1" data-name="Path 1" d="M232.175,0c-.1,0-.2.007-.322.007q-56.636,3.41-113.351,3.4T5.148.007C5.03.007,4.929,0,4.808,0A4.781,4.781,0,0,0,0,4.836V37.153A4.775,4.775,0,0,0,4.808,41.99h.34Q61.755,38.584,118.5,38.573q56.694,0,113.351,3.417h.322A4.777,4.777,0,0,0,237,37.153V4.836A4.783,4.783,0,0,0,232.175,0M220.789,12.462h.02a1.72,1.72,0,1,1-.02,0M19.934,29.541H14.241V15.77H12.511V12.462h6.921c6.456,0,10.057,1.647,10.057,8.707,0,6.479-4.043,8.371-9.555,8.371m18.647.322c-5.15,0-7.965-3.623-7.965-8.842,0-5.251,2.815-8.893,7.965-8.893s7.967,3.642,7.967,8.893c0,5.219-2.817,8.842-7.967,8.842m21.463-.322H48.358V12.462h4.727V26.221h7.161Zm13.379,0H61.735V12.462h4.727V26.221h7.182Zm13.133,0-1.024-3.119H79.838l-.906,3.119H74.306L78.792,15.77l.926-3.307H85.35l6.156,17.078Zm21.385-.322a5.9,5.9,0,0,1-2.556.624,4.571,4.571,0,0,1-2.735-.756,7.849,7.849,0,0,1-1.87-2.163l-1.891-3.049H97.62v5.665H92.914V12.462h6.4a10.936,10.936,0,0,1,5.289.943,4.944,4.944,0,0,1,2.516,4.608,5.276,5.276,0,0,1-3.218,5.262l1.366,2.19c.524.8.926,1.047,1.63,1.047a2.6,2.6,0,0,0,1.348-.393Zm23.713.322H128.88l-.563-.865a8.641,8.641,0,0,1-4.445,1.187c-5.552,0-7.765-3.883-7.765-8.842,0-5.644,3.017-8.893,8.228-8.893,3.821,0,6.3,1.841,7,5.3l-4.9.825c-.343-1.641-1.007-2.516-2.376-2.516-1.748,0-2.917,1.831-2.917,5.067,0,3.582,1.247,5.454,3.862,5.454a5.125,5.125,0,0,0,2.014-.422V23.483H125.2V20.766h6.454Zm14.005,0H133.807V12.462h11.449V15.77h-6.72v3.461h5.493v3.287h-5.493v3.7h7.345Zm16.334,0h-2.979l-6.9-8.19a3.615,3.615,0,0,1-.725-1.127v9.317h-3.88V12.462h2.874l6.963,8.2a4.926,4.926,0,0,1,.784,1.187V12.462h3.865Zm14.32,0H164.464V12.462H175.91V15.77h-6.721v3.461H174.7v3.287h-5.514v3.7h7.345Zm16.876-.322a5.919,5.919,0,0,1-2.576.624,4.55,4.55,0,0,1-2.717-.756,7.863,7.863,0,0,1-1.851-2.163l-1.888-3.049H182.89v5.665h-4.726V12.462h6.4a10.9,10.9,0,0,1,5.29.943,4.928,4.928,0,0,1,2.5,4.608,5.26,5.26,0,0,1-3.2,5.262l1.369,2.19c.523.8.926,1.047,1.63,1.047a2.6,2.6,0,0,0,1.349-.393Zm13.255.322-1.027-3.119h-5.688l-.926,3.119H194.2l4.488-13.771.926-3.307h5.627l6.138,17.078Zm17.822,0H212.582V12.462h4.729V26.221h7.157ZM220.809,15.68a1.422,1.422,0,0,0,1.385-1.469,1.438,1.438,0,0,0-1.385-1.486h-.02a1.48,1.48,0,0,0,.02,2.955m-.644-2.415a3.827,3.827,0,0,1,.544-.04,1.054,1.054,0,0,1,.6.141.514.514,0,0,1-.2.885v.021c.181.02.3.181.322.463a1.46,1.46,0,0,0,.137.483h-.319a1.151,1.151,0,0,1-.141-.5.384.384,0,0,0-.422-.343h-.222v.845h-.3Zm1.006.543c0-.181-.121-.352-.463-.352-.121,0-.181.02-.241.02v.654h.241c.241,0,.463-.091.463-.322M38.581,15.75c-1.89,0-2.936,1.559-2.936,5.271,0,3.689,1.046,5.219,2.936,5.219s2.936-1.529,2.936-5.219c0-3.712-1.044-5.271-2.936-5.271m163.8.815h-.04a12.913,12.913,0,0,1-.543,2.555l-1.187,4.143h3.739l-1.3-4.1a11.861,11.861,0,0,1-.665-2.6m-103.394-.8H97.62v5.158h2.013c1.87,0,2.594-.812,2.594-2.633A2.575,2.575,0,0,0,101.6,16.4a3.648,3.648,0,0,0-2.614-.634m-16.475.8h-.06a12.579,12.579,0,0,1-.523,2.555l-1.207,4.143h3.761l-1.327-4.1a11.706,11.706,0,0,1-.643-2.6m101.724-.8H182.89v5.158h1.992c1.849,0,2.572-.812,2.572-2.633a2.572,2.572,0,0,0-.6-1.891,3.617,3.617,0,0,0-2.613-.634m-164.244,0H18.97v10.47H20.4c3.54,0,4.123-2.011,4.123-5.392,0-4.263-1.648-5.078-4.526-5.078" transform="translate(0 0)" fill="#fff200"/>
      </g>
    </g>
    <path id="Path_10486" data-name="Path 10486" d="M8.925,17.191A7.259,7.259,0,0,0,14.633,14.7l-1.588-1.608A5.5,5.5,0,0,1,9.005,14.9,4.74,4.74,0,0,1,4.363,9.916v-.04A4.735,4.735,0,0,1,9.005,4.911,5.6,5.6,0,0,1,12.945,6.66l1.588-1.829A7.333,7.333,0,0,0,9.026,2.64,7.119,7.119,0,0,0,1.77,9.916v.04A7.076,7.076,0,0,0,8.925,17.191Zm7.095-.241h2.532L20,13.553h6.653l1.427,3.4h2.613L24.5,2.781H22.21ZM20.9,11.363l2.412-5.628,2.432,5.628ZM33.1,16.95h2.472v-4.9h3.1l3.457,4.9h2.934l-3.8-5.326A4.224,4.224,0,0,0,44.6,7.363v-.04a4.253,4.253,0,0,0-1.166-3.035,5.668,5.668,0,0,0-4.06-1.407H33.1Zm2.472-7.095V5.132h3.6c1.829,0,2.914.824,2.914,2.331V7.5c0,1.427-1.126,2.352-2.894,2.352ZM47.635,16.95H58.166V14.739H50.107V10.961h7.055V8.75H50.107V5.092h7.959V2.881H47.635Zm13.466,0H71.632V14.739H63.573V10.961h7.055V8.75H63.573V5.092h7.959V2.881H61.1Zm13.466,0h2.472v-4.9h3.1l3.457,4.9h2.934l-3.8-5.326a4.224,4.224,0,0,0,3.336-4.261v-.04A4.253,4.253,0,0,0,84.9,4.288a5.668,5.668,0,0,0-4.06-1.407H74.567Zm2.472-7.095V5.132h3.6c1.829,0,2.914.824,2.914,2.331V7.5c0,1.427-1.126,2.352-2.894,2.352Zm16.983,7.3c2.954,0,5.025-1.568,5.025-4.2v-.04c0-2.331-1.527-3.4-4.5-4.12-2.713-.643-3.356-1.126-3.356-2.211v-.04c0-.925.844-1.668,2.291-1.668A6.39,6.39,0,0,1,97.3,6.318l1.327-1.869A7.8,7.8,0,0,0,93.519,2.68c-2.794,0-4.8,1.668-4.8,4.08V6.8c0,2.593,1.688,3.477,4.683,4.2,2.613.6,3.176,1.146,3.176,2.151v.04c0,1.045-.965,1.769-2.492,1.769a6.516,6.516,0,0,1-4.442-1.829L88.153,14.9A8.666,8.666,0,0,0,94.022,17.151Z" transform="translate(208.092 90.031)" fill="#fff200"/>
  </g>
</svg>
