<svg width="39" height="39" viewBox="0 0 39 39" fill="none" xmlns="http://www.w3.org/2000/svg">
<path d="M30.8228 30.8232V33.9022C30.8203 34.7181 30.4952 35.4998 29.9183 36.0767C29.3414 36.6536 28.5597 36.9788 27.7438 36.9812H10.8094C9.9936 36.9788 9.21186 36.6536 8.63497 36.0767C8.05808 35.4998 7.73291 34.7181 7.73047 33.9022V30.8232H30.8228Z" fill="white" style="fill:white;fill-opacity:1;"/>
<path d="M30.8228 4.65173V30.823H7.73047V4.65173C7.73291 3.83588 8.05808 3.05415 8.63497 2.47726C9.21186 1.90036 9.9936 1.57519 10.8094 1.57275H27.7438C28.5597 1.57519 29.3414 1.90036 29.9183 2.47726C30.4952 3.05415 30.8203 3.83588 30.8228 4.65173Z" fill="#FFF000" style="fill:#FFF000;fill:color(display-p3 1.0000 0.9412 0.0000);fill-opacity:1;"/>
<path d="M30.8228 4.67944V4.65173C30.8203 3.83588 30.4952 3.05415 29.9183 2.47726C29.3414 1.90036 28.5597 1.57519 27.7438 1.57275H10.8094C9.9936 1.57519 9.21186 1.90036 8.63497 2.47726C8.05808 3.05415 7.73291 3.83588 7.73047 4.65173V27.7718L30.8228 4.67944Z" fill="white" style="fill:white;fill-opacity:1;"/>
<path d="M10.8094 1.57275H27.7438C27.7438 1.57275 30.8228 1.57275 30.8228 4.65173V33.902C30.8228 33.902 30.8228 36.981 27.7438 36.981H10.8094C10.8094 36.981 7.73047 36.981 7.73047 33.902V4.65173C7.73047 4.65173 7.73047 1.57275 10.8094 1.57275Z" stroke="black" style="stroke:black;stroke-opacity:1;" stroke-width="1.60642" stroke-linecap="round" stroke-linejoin="round"/>
<path d="M30.8228 30.8232H7.73047" stroke="black" style="stroke:black;stroke-opacity:1;" stroke-width="1.60642" stroke-linecap="round" stroke-linejoin="round"/>
<path d="M15.4258 4.65186H23.1232" stroke="black" style="stroke:black;stroke-opacity:1;" stroke-width="1.60642" stroke-linecap="round" stroke-linejoin="round"/>
<path d="M19.2755 33.1323C19.3516 33.1323 19.426 33.1549 19.4893 33.1972C19.5526 33.2395 19.6019 33.2996 19.6311 33.3699C19.6602 33.4402 19.6678 33.5176 19.653 33.5923C19.6381 33.6669 19.6015 33.7355 19.5476 33.7893C19.4938 33.8432 19.4252 33.8798 19.3506 33.8947C19.2759 33.9095 19.1985 33.9019 19.1282 33.8728C19.0579 33.8436 18.9978 33.7943 18.9555 33.731C18.9132 33.6677 18.8906 33.5933 18.8906 33.5172C18.8906 33.4151 18.9312 33.3172 19.0034 33.2451C19.0755 33.1729 19.1734 33.1323 19.2755 33.1323Z" stroke="black" style="stroke:black;stroke-opacity:1;" stroke-width="1.60642" stroke-linecap="round" stroke-linejoin="round"/>
</svg>
