<svg width="36" height="36" viewBox="0 0 36 36" fill="none" xmlns="http://www.w3.org/2000/svg">
<g clip-path="url(#clip0_2986_26663)">
<path d="M25.9062 30.2188C25.9062 30.9812 25.6033 31.7125 25.0642 32.2517C24.525 32.7908 23.7937 33.0938 23.0312 33.0938H12.9688C12.207 33.0915 11.477 32.7878 10.9383 32.2492C10.3997 31.7105 10.096 30.9805 10.0938 30.2188V27.3438H25.8919L25.9062 30.2188Z" fill="white" style="fill:white;fill-opacity:1;"/>
<path d="M25.8919 27.3438H10.0938V7.21875C10.096 6.45695 10.3997 5.72701 10.9383 5.18833C11.477 4.64966 12.207 4.34603 12.9688 4.34375H23.0312C23.6691 4.34436 24.2887 4.55629 24.7932 4.94642C25.2978 5.33655 25.6589 5.88288 25.82 6.5L25.8919 27.3438Z" fill="#FFF000" style="fill:#FFF000;fill:color(display-p3 1.0000 0.9412 0.0000);fill-opacity:1;"/>
<path d="M25.8301 9.44544L25.82 6.5C25.6589 5.88288 25.2978 5.33655 24.7932 4.94642C24.2887 4.55629 23.6691 4.34436 23.0312 4.34375H12.9688C12.207 4.34603 11.477 4.64966 10.9383 5.18833C10.3997 5.72701 10.096 6.45695 10.0938 7.21875V25.1875L25.8301 9.44544Z" fill="#FFF9E2" style="fill:#FFF9E2;fill:color(display-p3 1.0000 0.9765 0.8863);fill-opacity:1;"/>
<path d="M25.9062 27.3438H12.9688" stroke="black" style="stroke:black;stroke-opacity:1;" stroke-width="1.5" stroke-linecap="round" stroke-linejoin="round"/>
<path d="M18 29.8594C18.0953 29.8594 18.1867 29.8972 18.2541 29.9646C18.3215 30.032 18.3594 30.1234 18.3594 30.2188C18.3594 30.3141 18.3215 30.4055 18.2541 30.4729C18.1867 30.5403 18.0953 30.5781 18 30.5781C17.9047 30.5781 17.8133 30.5403 17.7459 30.4729C17.6785 30.4055 17.6406 30.3141 17.6406 30.2188C17.6406 30.1234 17.6785 30.032 17.7459 29.9646C17.8133 29.8972 17.9047 29.8594 18 29.8594Z" stroke="black" style="stroke:black;stroke-opacity:1;" stroke-width="1.5" stroke-linecap="round" stroke-linejoin="round"/>
<path d="M10.0938 21.5938V7.21875C10.0938 6.45625 10.3967 5.72499 10.9358 5.18582C11.475 4.64665 12.2063 4.34375 12.9688 4.34375H23.0312C23.6688 4.34359 24.2882 4.55532 24.7923 4.94564C25.2963 5.33596 25.6563 5.88274 25.8157 6.5" stroke="black" style="stroke:black;stroke-opacity:1;" stroke-width="1.5" stroke-linecap="round" stroke-linejoin="round"/>
<path d="M25.9062 15.1177V30.2186C25.9062 30.9811 25.6033 31.7124 25.0642 32.2515C24.525 32.7907 23.7937 33.0936 23.0312 33.0936H12.9688C12.2063 33.0936 11.475 32.7907 10.9358 32.2515C10.3967 31.7124 10.0938 30.9811 10.0938 30.2186V29.4999" stroke="black" style="stroke:black;stroke-opacity:1;" stroke-width="1.5" stroke-linecap="round" stroke-linejoin="round"/>
<path d="M34.5312 1.46875L1.46875 34.5312" stroke="black" style="stroke:black;stroke-opacity:1;" stroke-width="1.5" stroke-linecap="round" stroke-linejoin="round"/>
</g>
<defs>
<clipPath id="clip0_2986_26663">
<rect width="36" height="36" fill="white" style="fill:white;fill-opacity:1;"/>
</clipPath>
</defs>
</svg>
