<svg width="298" height="52" viewBox="0 0 298 52" fill="none" xmlns="http://www.w3.org/2000/svg">
<path fill-rule="evenodd" clip-rule="evenodd" d="M291.932 0C295.323 0 298 2.62515 298 5.98924V46.0108C298 49.3876 295.323 52 291.932 52H291.527C244.051 49.1888 196.525 47.7683 149.002 47.7683C101.45 47.7683 53.9243 49.1888 6.47415 52H6.04557C2.68056 52 0 49.3876 0 46.0108V5.98924C0 2.62515 2.68056 0 6.04557 0C6.19779 0 6.32409 0.00850594 6.47415 0.00850594C53.9243 2.82397 101.45 4.22001 149.002 4.22001C196.525 4.22001 244.051 2.82397 291.527 0.00850594C291.679 0.00850594 291.805 0 291.932 0" fill="#FEEF02" style="fill:#FEEF02;fill:color(display-p3 0.9961 0.9373 0.0078);fill-opacity:1;"/>
<path fill-rule="evenodd" clip-rule="evenodd" d="M24.1958 20.0365H22.9049V32.7905H24.7033C29.1646 32.7905 29.8993 30.3403 29.8993 26.2211C29.8993 21.029 27.8229 20.0365 24.1958 20.0365M24.1201 36.8104H16.9449V20.0365H14.7656V16.0083H23.4881C31.6242 16.0083 36.1623 18.0141 36.1623 26.6143C36.1623 34.5066 31.0669 36.8104 24.1201 36.8104" fill="black" style="fill:black;fill-opacity:1;"/>
<path fill-rule="evenodd" clip-rule="evenodd" d="M47.6213 20.0121C45.2397 20.0121 43.9206 21.9112 43.9206 26.4341C43.9206 30.9277 45.2397 32.7912 47.6213 32.7912C50.0051 32.7912 51.322 30.9277 51.322 26.4341C51.322 21.9112 50.0051 20.0121 47.6213 20.0121M47.6213 37.2022C41.1311 37.2022 37.583 32.7912 37.583 26.4341C37.583 20.0362 41.1311 15.6001 47.6213 15.6001C54.1115 15.6001 57.6618 20.0362 57.6618 26.4341C57.6618 32.7912 54.1115 37.2022 47.6213 37.2022" fill="black" style="fill:black;fill-opacity:1;"/>
<path fill-rule="evenodd" clip-rule="evenodd" d="M74.9236 32.7664L74.6704 36.8103H59.9414V16.0093H65.8992V32.7664H74.9236Z" fill="black" style="fill:black;fill-opacity:1;"/>
<path fill-rule="evenodd" clip-rule="evenodd" d="M91.8101 32.7664L91.5309 36.8103H76.8008V16.0093H82.7586V32.7664H91.8101Z" fill="black" style="fill:black;fill-opacity:1;"/>
<path fill-rule="evenodd" clip-rule="evenodd" d="M105.473 29.1633L103.799 24.1667C103.396 22.9651 103.041 21.8504 102.99 21.0043H102.914C102.888 21.7646 102.61 22.8794 102.254 24.1175L100.733 29.1633H105.473ZM114.322 36.8098H108.083L106.792 33.0117H99.6172L98.4757 36.8098H92.6455L98.2982 20.036L99.4647 16.0088H106.564L114.322 36.8098Z" fill="black" style="fill:black;fill-opacity:1;"/>
<path fill-rule="evenodd" clip-rule="evenodd" d="M124.564 26.3193H122.028V20.0365H123.752C125.375 20.0365 126.413 20.208 127.047 20.8082C127.555 21.2987 127.833 22.059 127.833 23.1131C127.833 25.3311 126.921 26.3193 124.564 26.3193M133.715 33.122C132.828 33.122 132.32 32.8156 131.661 31.8472L129.939 29.1795C132.345 28.232 133.994 26.0746 133.994 22.769C133.994 20.2446 132.928 18.2963 130.824 17.1565C129.304 16.3272 127.149 16.0093 124.158 16.0093H116.096V36.8103H122.028V29.9115H123.626L126.01 33.6239C126.87 34.9238 127.58 35.683 128.366 36.2592C129.254 36.8595 130.344 37.1784 131.813 37.1784C132.954 37.1784 134.324 36.8103 135.034 36.4182L135.414 32.644C135.008 32.8888 134.4 33.122 133.715 33.122" fill="black" style="fill:black;fill-opacity:1;"/>
<path fill-rule="evenodd" clip-rule="evenodd" d="M276.848 18.0391H277.152C277.456 18.0391 277.736 17.9293 277.736 17.6469C277.736 17.4263 277.584 17.2182 277.152 17.2182C277.001 17.2182 276.924 17.2422 276.848 17.2422V18.0391ZM276.848 19.363H276.467V16.985C276.671 16.9609 276.848 16.9358 277.152 16.9358C277.533 16.9358 277.762 17.0101 277.913 17.1073C278.066 17.2182 278.137 17.3771 278.137 17.6103C278.137 17.9293 277.939 18.1008 277.66 18.1865V18.2106C277.888 18.2346 278.041 18.4312 278.066 18.7742C278.137 19.1423 278.188 19.2888 278.239 19.363H277.837C277.762 19.2888 277.711 19.0681 277.66 18.7502C277.584 18.4553 277.432 18.3329 277.128 18.3329H276.848V19.363ZM277.254 16.3272C276.29 16.3272 275.504 17.1324 275.504 18.1374C275.504 19.1423 276.29 19.9267 277.279 19.9267C278.239 19.9267 279.025 19.1423 279.025 18.1374C279.025 17.1324 278.239 16.3272 277.279 16.3272H277.254ZM277.279 16.0093C278.467 16.0093 279.431 16.9358 279.431 18.1374C279.431 19.3254 278.467 20.2571 277.254 20.2571C276.062 20.2571 275.099 19.3254 275.099 18.1374C275.099 16.9358 276.062 16.0093 277.254 16.0093H277.279Z" fill="black" style="fill:black;fill-opacity:1;"/>
<path fill-rule="evenodd" clip-rule="evenodd" d="M256.539 29.1633L254.894 24.1667C254.488 22.9651 254.109 21.8504 254.058 21.0043H254.007C253.956 21.7646 253.703 22.8794 253.322 24.1175L251.826 29.1633H256.539ZM265.39 36.8098H259.177L257.883 33.0117H250.714L249.548 36.8098H243.74L249.395 20.036L250.563 16.0088H257.654L265.39 36.8098Z" fill="black" style="fill:black;fill-opacity:1;"/>
<path fill-rule="evenodd" clip-rule="evenodd" d="M164.918 36.8105H161.423L160.712 35.7564C159.348 36.6024 157.24 37.2027 155.11 37.2027C148.115 37.2027 145.325 32.4727 145.325 26.4335C145.325 19.5588 149.128 15.6006 155.694 15.6006C160.51 15.6006 163.629 17.8427 164.512 22.0591L158.333 23.0631C157.9 21.0657 157.062 20.0001 155.338 20.0001C153.133 20.0001 151.663 22.2307 151.663 26.1721C151.663 30.536 153.233 32.8157 156.53 32.8157C157.417 32.8157 158.434 32.5951 159.068 32.3012V29.4327H156.783V26.1229H164.918V36.8105Z" fill="black" style="fill:black;fill-opacity:1;"/>
<path fill-rule="evenodd" clip-rule="evenodd" d="M182.849 32.7664L182.57 36.8103H167.632V16.0093H182.062V20.0365H173.592V24.2519H180.516V28.2571H173.592V32.7664H182.849Z" fill="black" style="fill:black;fill-opacity:1;"/>
<path fill-rule="evenodd" clip-rule="evenodd" d="M203.154 36.8104H199.4L190.702 26.835C190.322 26.4334 189.941 25.8948 189.788 25.4608V36.8104H184.898V16.0083H188.521L197.296 25.9921C197.701 26.4418 198.082 26.9824 198.285 27.4394V16.0083H203.154V36.8104Z" fill="black" style="fill:black;fill-opacity:1;"/>
<path fill-rule="evenodd" clip-rule="evenodd" d="M221.481 32.7664L221.202 36.8103H206.269V16.0093H220.695V20.0365H212.224V24.2519H219.173V28.2571H212.224V32.7664H221.481Z" fill="black" style="fill:black;fill-opacity:1;"/>
<path fill-rule="evenodd" clip-rule="evenodd" d="M281.891 32.7664L281.638 36.8103H266.911V16.0093H272.871V32.7664H281.891Z" fill="black" style="fill:black;fill-opacity:1;"/>
<path fill-rule="evenodd" clip-rule="evenodd" d="M232.002 26.3193H229.492V20.0365H231.191C232.809 20.0365 233.874 20.208 234.483 20.8082C234.991 21.2987 235.244 22.059 235.244 23.1131C235.244 25.3311 234.331 26.3193 232.002 26.3193M241.153 33.122C240.266 33.122 239.758 32.8156 239.099 31.8472L237.375 29.1795C239.783 28.232 241.406 26.0746 241.406 22.769C241.406 20.2446 240.367 18.2963 238.262 17.1565C236.765 16.3272 234.585 16.0093 231.596 16.0093H223.536V36.8103H229.492V29.9115H231.089L233.468 33.6239C234.306 34.9238 235.042 35.683 235.802 36.2592C236.69 36.8595 237.78 37.1784 239.226 37.1784C240.393 37.1784 241.762 36.8103 242.472 36.4182L242.852 32.644C242.446 32.8888 241.838 33.122 241.153 33.122" fill="black" style="fill:black;fill-opacity:1;"/>
</svg>
