<?xml version="1.0" encoding="utf-8"?>
<!-- Generator: Adobe Illustrator 25.2.3, SVG Export Plug-In . SVG Version: 6.00 Build 0)  -->
<svg version="1.0" id="Layer_1" xmlns="http://www.w3.org/2000/svg" xmlns:xlink="http://www.w3.org/1999/xlink" x="0px" y="0px"
	 viewBox="0 0 328.4 69.5" style="enable-background:new 0 0 328.4 69.5;" xml:space="preserve">
<style type="text/css">
	.st0{fill:#FFFFFF;}
	.st1{fill:#989899;}
</style>
<path class="st0" d="M68.9,1.3c-12.1,0-21.7,9.5-21.7,21.7c0,12.3,9.6,21.7,21.7,21.7c12.1,0,21.8-9.5,21.8-21.7
	C90.7,10.8,81,1.3,68.9,1.3 M68.9,34.4c-6.3,0-11.1-4.7-11.1-11.4c0-6.7,4.9-11.4,11.1-11.4c6.3,0,11.2,4.7,11.2,11.4
	C80.1,29.7,75.2,34.4,68.9,34.4"/>
<path class="st0" d="M24,15c-6,0-10.4,2.2-13.3,6v-4.9H0v53.4h10.6v-17c3,3.8,7.3,6,13.3,6c11,0,20.1-9.5,20.1-21.7
	C44.1,24.4,35,15,24,15 M22,48.3c-6.5,0-11.4-4.7-11.4-11.6c0-6.9,4.9-11.6,11.4-11.6c6.6,0,11.4,4.7,11.4,11.6
	C33.4,43.6,28.6,48.3,22,48.3"/>
<path class="st0" d="M119.6,15c-6,0-10.4,2.2-13.3,6v-4.9H95.6v53.4h10.6v-17c3,3.8,7.3,6,13.3,6c11,0,20.1-9.5,20.1-21.7
	C139.7,24.4,130.6,15,119.6,15 M117.6,48.3c-6.5,0-11.4-4.7-11.4-11.6c0-6.9,4.9-11.6,11.4-11.6c6.6,0,11.4,4.7,11.4,11.6
	C129.1,43.6,124.2,48.3,117.6,48.3"/>
<rect x="277.9" y="0.1" class="st1" width="10.6" height="57.3"/>
<path class="st1" d="M208.7,15c-5.5,0-9.8,2.1-12.3,5.8V0.1h-10.6v57.3h10.6V35.1c0-7.2,3.9-10.2,9.1-10.2c4.8,0,8.2,2.9,8.2,8.5v24
	h10.6V32C224.2,21.1,217.4,15,208.7,15"/>
<path class="st1" d="M251.6,15c-12.9,0-21.7,9.5-21.7,21.7c0,12.3,8.7,21.7,22.6,21.7c7.9,0,14.1-3.2,18-8.8l-8.6-4.9
	c-1.8,2.4-5.4,4.1-9.6,4.1c-5.1,0-9.9-2.3-11.4-7.7H272c0.2-1.4,0.4-2.8,0.4-4.4C272.4,24.6,263.8,15,251.6,15 M240.8,32.9
	c1.2-5.9,5.4-8.3,10.8-8.3c4.8,0,9.1,2.4,10.2,8.3H240.8z"/>
<path class="st1" d="M156,27.8c0.1-2.5,3-4.1,6.7-3.8c4.5,0.4,7.1,2.5,8.4,5.1l7.8-5.6C176,18,169.7,15,162.4,15
	c-9.2,0-17,4.6-17,13c0,14.8,24.2,10.9,24.2,17.3c0,2.4-3.3,3.9-7.5,3.5c-5.2-0.5-8.4-3.1-10.1-6.1l-8.2,5.8
	c4.4,6.8,10.6,9.9,18.5,9.9c9.6,0,18.1-4.3,18.1-13.2C180.4,29.9,155.8,34.3,156,27.8"/>
<path class="st1" d="M319.3,10.3h4.3V0.1h-4.3c-13.1,0-19.4,6-19.4,17.4v0.4H294V28h5.9v29.3h10.6V28h13V17.8h-13v-0.4
	C310.6,11.8,313.7,10.3,319.3,10.3"/>
<path class="st1" d="M328.4,1.8c0,1-0.8,1.8-1.7,1.8c-1,0-1.7-0.8-1.7-1.8c0-1,0.8-1.8,1.7-1.8C327.6,0,328.4,0.8,328.4,1.8
	 M328.1,1.8c0-0.8-0.6-1.4-1.4-1.4s-1.4,0.6-1.4,1.4c0,0.8,0.6,1.4,1.4,1.4S328.1,2.6,328.1,1.8 M326.9,2l0.4,0.6H327L326.6,2h-0.1
	v0.6h-0.3V0.9h0.7c0.4,0,0.6,0.3,0.6,0.5C327.3,1.8,327.2,2,326.9,2 M326.4,1.2v0.5h0.3c0.2,0,0.3-0.1,0.3-0.3
	c0-0.1-0.1-0.3-0.3-0.3H326.4z"/>
</svg>
