<svg width="56" height="50" viewBox="0 0 56 50" fill="none" xmlns="http://www.w3.org/2000/svg">
<path d="M4.625 47.1042V29.3126C4.625 28.6107 5.19397 28.0417 5.89583 28.0417H49.1042C49.806 28.0417 50.375 28.6107 50.375 29.3126V47.1042C50.375 47.8061 49.806 48.3751 49.1042 48.3751H5.89583C5.19397 48.3751 4.625 47.8061 4.625 47.1042Z" stroke="#4A7DFF" style="stroke:#4A7DFF;stroke:color(display-p3 0.2902 0.4902 1.0000);stroke-opacity:1;" stroke-width="1.3"/>
<path d="M22.417 48.3751V28.0417H32.5837V48.3751H22.417Z" stroke="#4A7DFF" style="stroke:#4A7DFF;stroke:color(display-p3 0.2902 0.4902 1.0000);stroke-opacity:1;" stroke-width="1.3"/>
<path d="M2.08398 26.7708V16.6041C2.08398 15.9022 2.65295 15.3333 3.35482 15.3333H51.6465C52.3483 15.3333 52.9173 15.9022 52.9173 16.6041V26.7708C52.9173 27.4726 52.3483 28.0416 51.6465 28.0416H3.35482C2.65296 28.0416 2.08398 27.4726 2.08398 26.7708Z" stroke="#4A7DFF" style="stroke:#4A7DFF;stroke:color(display-p3 0.2902 0.4902 1.0000);stroke-opacity:1;" stroke-width="1.3"/>
<path d="M27.5003 15.3333L35.1608 5.75778C36.5574 4.01199 39.088 3.69072 40.8765 5.03215C43.6648 7.12338 42.7782 11.5139 39.3969 12.3592L27.5003 15.3333ZM27.5003 15.3333L19.8399 5.75778C18.4432 4.01199 15.9127 3.69072 14.1241 5.03215C11.3358 7.12338 12.2224 11.5139 15.6038 12.3592L27.5003 15.3333Z" stroke="#4A7DFF" style="stroke:#4A7DFF;stroke:color(display-p3 0.2902 0.4902 1.0000);stroke-opacity:1;" stroke-width="1.3"/>
<path d="M22.417 28.0416V15.3333H32.5837V28.0416H22.417Z" stroke="#4A7DFF" style="stroke:#4A7DFF;stroke:color(display-p3 0.2902 0.4902 1.0000);stroke-opacity:1;" stroke-width="1.3"/>
</svg>
