<svg width="618" height="109" viewBox="0 0 618 109" fill="none" xmlns="http://www.w3.org/2000/svg">
<g clip-path="url(#clip0_3025_17597)">
<path d="M107.212 0.0161133H35.7094V35.8387H0V107.568H71.503V71.7457H107.212V0.0161133Z" fill="white" style="fill:white;fill-opacity:1;"/>
<path opacity="0.4" d="M0 35.8384V71.7454H35.7094V107.568H71.5029V35.8384H0Z" fill="#00B2E3" style="fill:#00B2E3;fill:color(display-p3 0.0000 0.6980 0.8902);fill-opacity:1;"/>
<path d="M127.256 92.6981L142.837 80.4475C147.216 88.0513 154.206 92.4446 162.207 92.4446C170.882 92.4446 175.514 86.784 175.514 80.6164C175.514 73.266 166.587 70.9004 157.07 67.9434C145.111 64.2259 131.72 59.5791 131.72 42.4282C131.72 28.0654 144.184 16.6597 161.449 16.6597C176.019 16.6597 184.357 22.1513 191.6 29.6707L177.535 40.3161C173.83 34.8244 168.608 31.8674 161.618 31.8674C153.701 31.8674 149.406 36.1762 149.406 41.8368C149.406 48.6803 157.996 51.0459 167.513 54.2564C179.641 58.2273 193.369 63.55 193.369 80.7854C193.369 95.0637 182.083 108.751 162.376 108.751C146.121 108.835 135.341 101.907 127.256 92.6981ZM264.198 46.1457H280.873V52.9891C284.832 47.9199 290.811 44.8784 297.802 44.8784C312.203 44.8784 320.962 54.172 320.962 70.0555V107.483H303.95V72.3367C303.95 64.1414 300.16 59.3257 292.664 59.3257C286.264 59.3257 281.042 63.719 281.042 74.0264V107.568H264.282V46.1457H264.198ZM324.752 76.899C324.752 55.1858 340.67 44.9629 354.482 44.9629C362.399 44.9629 368.715 47.9199 372.758 52.2287V17.927H389.518V107.568H372.758V100.724C368.715 105.54 362.23 108.835 354.314 108.835C341.344 108.835 324.752 98.4432 324.752 76.899ZM373.263 76.73C373.263 67.6054 366.694 60.255 357.598 60.255C348.334 60.255 341.175 67.2675 341.175 76.73C341.175 86.1926 348.25 93.2895 357.598 93.2895C366.61 93.2895 373.263 85.8546 373.263 76.73ZM393.476 62.7896C393.476 37.2745 412.678 16.7442 439.123 16.7442C452.346 16.7442 463.463 21.5599 471.548 29.1638C474.833 32.2898 477.612 35.8382 479.802 39.7247L464.895 48.8493C459.42 38.6263 450.914 33.3881 439.292 33.3881C423.037 33.3881 410.404 46.7371 410.404 62.8741C410.404 79.3491 422.785 92.3601 439.881 92.3601C452.851 92.3601 462.031 85.0098 465.232 73.604H437.186V57.129H483.592V63.9725C483.592 88.0513 466.495 108.751 439.881 108.751C411.92 108.835 393.476 87.5444 393.476 62.7896ZM487.803 46.1457H504.478V56.1996C507.51 49.7786 513.069 46.1457 521.406 46.1457H528.144L521.996 62.5362H517.448C508.521 62.5362 504.562 67.183 504.562 78.5887V107.568H487.803V46.1457ZM532.439 46.1457H549.199V107.568H532.439V62.5362H526.375L532.439 46.1457ZM540.861 36.8521C546.42 36.8521 550.883 32.3743 550.883 26.7981C550.883 21.222 546.42 16.7442 540.861 16.7442C535.303 16.7442 530.839 21.222 530.839 26.7981C530.839 32.2898 535.303 36.8521 540.861 36.8521ZM553.157 76.899C553.157 55.1858 569.075 44.9629 582.887 44.9629C590.804 44.9629 597.12 47.9199 601.163 52.2287V17.927H617.923V107.568H601.163V100.724C597.12 105.54 590.635 108.835 582.719 108.835C569.665 108.835 553.157 98.4432 553.157 76.899ZM601.668 76.73C601.668 67.6054 595.099 60.255 586.003 60.255C576.739 60.255 569.58 67.2675 569.58 76.73C569.58 86.1926 576.655 93.2895 586.003 93.2895C595.015 93.2895 601.668 85.8546 601.668 76.73ZM260.24 76.73C260.24 59.0722 247.354 44.9629 228.657 44.9629C211.055 44.9629 196.822 59.2412 196.822 76.899C196.822 94.5568 210.044 108.835 229.162 108.835C242.385 108.835 251.902 102.414 257.208 93.2895L243.901 85.3477C241.122 90.7549 235.647 94.1344 229.247 94.1344C220.403 94.1344 214.929 89.741 212.992 82.9821H260.24V76.73ZM213.75 69.3796C216.361 63.6345 221.667 59.6636 228.825 59.6636C235.9 59.6636 241.206 62.9586 243.396 69.3796H213.75Z" fill="#243746" style="fill:#243746;fill:color(display-p3 0.1412 0.2157 0.2745);fill-opacity:1;"/>
<path d="M0 71.7454H35.7094V107.568H0V71.7454Z" fill="#1A82E2" style="fill:#1A82E2;fill:color(display-p3 0.1020 0.5098 0.8863);fill-opacity:1;"/>
<path d="M71.5006 35.8384V0.0158691H35.707V71.7454H107.21V35.8384H71.5006Z" fill="#00B2E3" style="fill:#00B2E3;fill:color(display-p3 0.0000 0.6980 0.8902);fill-opacity:1;"/>
<path d="M71.5 0.0158691H107.209V35.8384H71.5V0.0158691Z" fill="#1A82E2" style="fill:#1A82E2;fill:color(display-p3 0.1020 0.5098 0.8863);fill-opacity:1;"/>
</g>
<defs>
<clipPath id="clip0_3025_17597">
<rect width="617.924" height="108.851" fill="white" style="fill:white;fill-opacity:1;"/>
</clipPath>
</defs>
</svg>
