<svg width="297" height="62" viewBox="0 0 297 62" fill="none" xmlns="http://www.w3.org/2000/svg">
<g id="sw-inline-logo-color-white">
<g id="text">
<path fill-rule="evenodd" clip-rule="evenodd" d="M64.8317 47.5155C59.8995 47.5155 54.9206 45.7922 51.0117 42.299L55.2463 37.2221C58.1775 39.6441 61.2488 41.181 64.9713 41.181C67.9028 41.181 69.6711 40.0167 69.6711 38.1071V38.0141C69.6711 36.1975 68.5541 35.2659 63.11 33.8689C56.549 32.192 52.3145 30.3757 52.3145 23.9016V23.8086C52.3145 17.8935 57.0609 13.981 63.7151 13.981C68.4612 13.981 72.5096 15.4716 75.8135 18.1265L72.0907 23.529C69.2058 21.526 66.3672 20.3154 63.6219 20.3154C60.8765 20.3154 59.4339 21.573 59.4339 23.1566V23.2496C59.4339 25.3919 60.8299 26.0909 66.4605 27.5348C73.0678 29.2578 76.7905 31.633 76.7905 37.3151V37.4085C76.7905 43.8823 71.8579 47.5155 64.8317 47.5155Z" fill="white" style="fill:white;fill-opacity:1;"/>
<path fill-rule="evenodd" clip-rule="evenodd" d="M115.363 47.2826H109.128L101.775 25.951L94.4234 47.2826H88.188L77.0668 14.447H84.7447L91.4919 36.5236L98.7972 14.3537H104.94L112.245 36.5236L118.992 14.447H126.484L115.363 47.2826Z" fill="white" style="fill:white;fill-opacity:1;"/>
<path fill-rule="evenodd" clip-rule="evenodd" d="M129.178 47.0495H136.344V14.4469H129.178V47.0495Z" fill="white" style="fill:white;fill-opacity:1;"/>
<path fill-rule="evenodd" clip-rule="evenodd" d="M165.702 47.0495V25.7646L156.535 39.6905H156.349L147.275 25.9043V47.0495H140.249V14.447H147.973L156.535 28.2332L165.097 14.447H172.821V47.0495H165.702Z" fill="white" style="fill:white;fill-opacity:1;"/>
<path fill-rule="evenodd" clip-rule="evenodd" d="M176.725 47.0495V14.447H183.891V40.5291H200.131L197.523 47.0495H176.725Z" fill="white" style="fill:white;fill-opacity:1;"/>
<path fill-rule="evenodd" clip-rule="evenodd" d="M218.275 22.8304L213.948 33.4027H222.603L218.275 22.8304ZM228.14 47.0497L225.162 39.7373H211.388L208.41 47.0497H201.105L215.065 14.2141H221.672L235.632 47.0497H228.14Z" fill="white" style="fill:white;fill-opacity:1;"/>
<path fill-rule="evenodd" clip-rule="evenodd" d="M261.873 47.0495L246.098 26.3233V47.0495H239.026V14.447H245.633L260.896 34.5207V14.447H267.968V47.0495H261.873Z" fill="white" style="fill:white;fill-opacity:1;"/>
<path fill-rule="evenodd" clip-rule="evenodd" d="M272.198 47.0495V14.447H296.767V20.8278H279.318V27.4412H294.673V33.8223H279.318V40.6688H297V47.0495H272.198Z" fill="white" style="fill:white;fill-opacity:1;"/>
</g>
<g id="mark">
<path id="Fill 1" fill-rule="evenodd" clip-rule="evenodd" d="M30.9609 17.8886C30.2398 17.3086 29.2135 17.3086 28.4925 17.8886L19.767 24.9053C18.7834 25.6959 18.7834 27.1963 19.767 27.9873L28.8014 35.2523C28.8408 35.2839 28.8973 35.2839 28.9368 35.2523L40.6397 25.8412C40.6939 25.7977 40.6939 25.7154 40.6397 25.6719L30.9609 17.8886Z" fill="#19CCC0" style="fill:#19CCC0;fill:color(display-p3 0.0980 0.8000 0.7530);fill-opacity:1;"/>
<path id="Fill 23" fill-rule="evenodd" clip-rule="evenodd" d="M19.7705 61.7231L40.2853 45.2261C40.5798 44.9893 40.751 44.6317 40.751 44.253V25.7515L18.2121 43.8766C17.9176 44.113 17.7461 44.471 17.7461 44.8494V60.7503C17.7461 61.7976 18.9558 62.3785 19.7705 61.7231" fill="#00FFF4" style="fill:#00FFF4;fill:color(display-p3 0.0000 1.0000 0.9570);fill-opacity:1;"/>
<path id="Fill 24" fill-rule="evenodd" clip-rule="evenodd" d="M40.7518 25.7471L28.8691 35.3071L25.6123 32.6877L40.7518 25.7471Z" fill="#27AFA2" style="fill:#27AFA2;fill:color(display-p3 0.1530 0.6860 0.6350);fill-opacity:1;"/>
<path id="Fill 25" fill-rule="evenodd" clip-rule="evenodd" d="M9.79079 44.1115C10.5118 44.6914 11.5382 44.6914 12.2592 44.1115L20.9847 37.0948C21.9683 36.3041 21.9683 34.8038 20.9847 34.0131L11.9503 26.7481C11.9109 26.7161 11.8543 26.7161 11.8149 26.7481L0.111958 36.1592C0.0577326 36.2024 0.0577326 36.2847 0.111958 36.3282L9.79079 44.1115Z" fill="#028ACF" style="fill:#028ACF;fill:color(display-p3 0.0080 0.5410 0.8120);fill-opacity:1;"/>
<path id="Fill 26" fill-rule="evenodd" clip-rule="evenodd" d="M20.9805 0.276954L0.465685 16.774C0.171222 17.0107 0 17.3687 0 17.7471V36.2486L22.5389 18.1238C22.8334 17.887 23.0049 17.5291 23.0049 17.1507V1.25008C23.0049 0.202859 21.7952 -0.378381 20.9805 0.276954" fill="#02AAFF" style="fill:#02AAFF;fill:color(display-p3 0.0080 0.6670 1.0000);fill-opacity:1;"/>
<path id="Fill 27" fill-rule="evenodd" clip-rule="evenodd" d="M0 36.253L11.8827 26.6934L15.1395 29.3124L0 36.253Z" fill="#0578A5" style="fill:#0578A5;fill:color(display-p3 0.0200 0.4710 0.6470);fill-opacity:1;"/>
</g>
</g>
</svg>
