<svg width="634" height="132" viewBox="0 0 634 132" fill="none" xmlns="http://www.w3.org/2000/svg">
<path fill-rule="evenodd" clip-rule="evenodd" d="M138.247 101.117C127.729 101.117 117.113 97.4493 108.777 90.0154L117.807 79.2116C124.057 84.3656 130.607 87.6363 138.544 87.6363C144.795 87.6363 148.566 85.1586 148.566 81.0948V80.8969C148.566 77.0311 146.184 75.0485 134.576 72.0756C120.585 68.507 111.555 64.6418 111.555 50.8644V50.6665C111.555 38.0786 121.676 29.7524 135.866 29.7524C145.986 29.7524 154.619 32.9246 161.664 38.5744L153.726 50.0714C147.574 45.809 141.521 43.2326 135.667 43.2326C129.813 43.2326 126.737 45.909 126.737 49.279V49.4769C126.737 54.0358 129.713 55.5233 141.72 58.5961C155.809 62.2627 163.748 67.3174 163.748 79.4095V79.6081C163.748 93.3848 153.229 101.117 138.247 101.117Z" fill="white" style="fill:white;fill-opacity:1;"/>
<path fill-rule="evenodd" clip-rule="evenodd" d="M245.998 100.621H232.702L217.025 55.2256L201.347 100.621H188.051L164.337 30.7443H180.709L195.096 77.725L210.674 30.5457H223.772L239.35 77.725L253.738 30.7443H269.712L245.998 100.621Z" fill="white" style="fill:white;fill-opacity:1;"/>
<path fill-rule="evenodd" clip-rule="evenodd" d="M275.458 100.125H290.739V30.7441H275.458V100.125Z" fill="white" style="fill:white;fill-opacity:1;"/>
<path fill-rule="evenodd" clip-rule="evenodd" d="M353.341 100.125V54.829L333.793 84.4643H333.396L314.048 55.1262V100.125H299.065V30.7442H315.536L333.793 60.0824L352.051 30.7442H368.522V100.125H353.341Z" fill="white" style="fill:white;fill-opacity:1;"/>
<path fill-rule="evenodd" clip-rule="evenodd" d="M376.846 100.125V30.7442H392.126V86.249H426.756L421.194 100.125H376.846Z" fill="white" style="fill:white;fill-opacity:1;"/>
<path fill-rule="evenodd" clip-rule="evenodd" d="M465.446 48.5849L456.219 71.0836H474.674L465.446 48.5849ZM486.483 100.125L480.132 84.5639H450.761L444.411 100.125H428.833L458.6 30.2487H472.69L502.457 100.125H486.483Z" fill="white" style="fill:white;fill-opacity:1;"/>
<path fill-rule="evenodd" clip-rule="evenodd" d="M558.413 100.125L524.776 56.0179V100.125H509.694V30.7442H523.784L556.33 73.4626V30.7442H571.411V100.125H558.413Z" fill="white" style="fill:white;fill-opacity:1;"/>
<path fill-rule="evenodd" clip-rule="evenodd" d="M580.431 100.125V30.7442H632.822V44.323H595.613V58.397H628.356V71.9765H595.613V86.5462H633.317V100.125H580.431Z" fill="white" style="fill:white;fill-opacity:1;"/>
<path fill-rule="evenodd" clip-rule="evenodd" d="M66.0188 38.0684C64.4813 36.8343 62.2927 36.8343 60.7552 38.0684L42.1493 53.0005C40.0518 54.6832 40.0518 57.876 42.1493 59.5594L61.414 75.0199C61.4981 75.0872 61.6186 75.0872 61.7027 75.0199L86.6578 54.9922C86.7734 54.8997 86.7734 54.7245 86.6578 54.632L66.0188 38.0684Z" fill="#19CCC0" style="fill:#19CCC0;fill:color(display-p3 0.0980 0.8000 0.7530);fill-opacity:1;"/>
<path fill-rule="evenodd" clip-rule="evenodd" d="M42.1606 131.352L85.906 96.2447C86.5339 95.7408 86.899 94.9797 86.899 94.1738V54.801L38.8375 93.3728C38.2096 93.8759 37.8438 94.6377 37.8438 95.4429V129.281C37.8438 131.51 40.4234 132.746 42.1606 131.352Z" fill="#00FFF4" style="fill:#00FFF4;fill:color(display-p3 0.0000 1.0000 0.9570);fill-opacity:1;"/>
<path fill-rule="evenodd" clip-rule="evenodd" d="M86.8985 54.7913L61.5601 75.1357L54.6152 69.5615L86.8985 54.7913Z" fill="#27AFA2" style="fill:#27AFA2;fill:color(display-p3 0.1530 0.6860 0.6350);fill-opacity:1;"/>
<path fill-rule="evenodd" clip-rule="evenodd" d="M20.8761 93.8728C22.4136 95.107 24.6021 95.107 26.1397 93.8728L44.7456 78.9407C46.8431 77.2581 46.8431 74.0652 44.7456 72.3826L25.4809 56.9221C25.3968 56.8541 25.2763 56.8541 25.1922 56.9221L0.237113 76.9497C0.121483 77.0416 0.121483 77.2168 0.237113 77.3093L20.8761 93.8728Z" fill="#028ACF" style="fill:#028ACF;fill:color(display-p3 0.0080 0.5410 0.8120);fill-opacity:1;"/>
<path fill-rule="evenodd" clip-rule="evenodd" d="M44.7384 0.589381L0.993018 35.6963C0.365111 36.2002 0 36.962 0 37.7672V77.14L48.0615 38.5689C48.6894 38.0651 49.0552 37.3033 49.0552 36.498V2.66027C49.0552 0.431699 46.4756 -0.805225 44.7384 0.589381Z" fill="#02AAFF" style="fill:#02AAFF;fill:color(display-p3 0.0080 0.6670 1.0000);fill-opacity:1;"/>
<path fill-rule="evenodd" clip-rule="evenodd" d="M0 77.1499L25.3384 56.8062L32.2832 62.3797L0 77.1499Z" fill="#0578A5" style="fill:#0578A5;fill:color(display-p3 0.0200 0.4710 0.6470);fill-opacity:1;"/>
</svg>
