<svg width="204" height="37" viewBox="0 0 204 37" fill="none" xmlns="http://www.w3.org/2000/svg">
<mask id="mask0_66_78991" style="mask-type:luminance" maskUnits="userSpaceOnUse" x="0" y="0" width="204" height="37">
<path d="M203.677 0H0V36.0861H203.677V0Z" fill="white" style="fill:white;fill-opacity:1;"/>
</mask>
<g mask="url(#mask0_66_78991)">
<path d="M199.53 0.000160732C199.445 0.000160732 199.359 0.00617651 199.254 0.00617651C166.805 1.95987 134.334 2.93386 101.84 2.92813C69.3464 2.9224 36.8743 1.94841 4.42404 0.00617651C4.32263 0.00617651 4.23583 0.000160732 4.13184 0.000160732C3.58632 -0.00295628 3.04564 0.102593 2.54134 0.31065C2.03704 0.518708 1.57922 0.825107 1.1946 1.21197C0.80997 1.59884 0.506233 2.05843 0.301108 2.56393C0.095982 3.06943 -0.00642564 3.61071 -0.000141015 4.15621V31.9294C-0.00724125 32.4751 0.0946023 33.0168 0.299428 33.5227C0.504253 34.0286 0.807944 34.4886 1.19272 34.8757C1.5775 35.2628 2.03564 35.5693 2.54031 35.7771C3.04498 35.985 3.58605 36.0901 4.13184 36.0863H4.42404C36.856 34.1349 69.3274 33.156 101.838 33.1497C134.32 33.1497 166.791 34.1286 199.252 36.0863H199.529C200.076 36.092 200.619 35.9884 201.125 35.7814C201.631 35.5744 202.091 35.2683 202.478 34.8811C202.864 34.4938 203.17 34.0332 203.375 33.5263C203.581 33.0194 203.684 32.4764 203.677 31.9294V4.15621C203.683 3.60954 203.58 3.06715 203.374 2.56079C203.168 2.05442 202.863 1.59427 202.477 1.20725C202.091 0.82023 201.631 0.514129 201.125 0.306862C200.619 0.0995944 200.077 -0.00467373 199.53 0.000160732ZM189.745 10.71H189.763C190.154 10.7122 190.528 10.8696 190.804 11.1475C191.079 11.4253 191.233 11.8011 191.232 12.1924C191.231 12.5837 191.075 12.9586 190.798 13.2348C190.521 13.5111 190.145 13.6663 189.754 13.6663C189.363 13.6663 188.987 13.5111 188.71 13.2348C188.433 12.9586 188.277 12.5837 188.276 12.1924C188.275 11.8011 188.429 11.4253 188.704 11.1475C188.98 10.8696 189.354 10.7122 189.745 10.71ZM17.1311 25.3876H12.2385V13.5529H10.7518V10.71H16.6997C22.2479 10.71 25.3426 12.1254 25.3426 18.1927C25.3426 23.7608 21.8681 25.3876 17.1311 25.3876ZM33.1563 25.6635C28.7304 25.6635 26.3112 22.5499 26.3112 18.0647C26.3112 13.552 28.7304 10.4221 33.1563 10.4221C37.5822 10.4221 40.0031 13.552 40.0031 18.0647C40.0031 22.5499 37.5822 25.6635 33.1563 25.6635ZM51.6015 25.3868H41.5586V10.71H45.621V22.5344H51.7751L51.6015 25.3868ZM63.0994 25.3868H53.0548V10.71H57.1171V22.5344H63.2893L63.0994 25.3868ZM74.3859 25.3868L73.5058 22.7063H68.6124L67.8338 25.3868H63.8582L67.7135 13.5529L68.5093 10.7108H73.3494L78.6399 25.3876L74.3859 25.3868ZM92.7641 25.11C92.0816 25.4519 91.3307 25.6352 90.5675 25.6463C89.7349 25.6846 88.9117 25.457 88.217 24.9966C87.572 24.4806 87.0273 23.8505 86.6099 23.1377L84.9848 20.5174H83.8942V25.3859H79.8499V10.71H85.3501C86.909 10.598 88.4712 10.8765 89.8954 11.5204C90.5913 11.9108 91.1632 12.4893 91.5456 13.1897C91.928 13.8901 92.1055 14.684 92.0577 15.4805C92.1293 16.4291 91.9009 17.3762 91.4045 18.1878C90.9082 18.9994 90.1692 19.6343 89.2921 20.0026L90.466 21.8847C90.9164 22.5722 91.2619 22.7845 91.8669 22.7845C92.2767 22.7803 92.6775 22.6635 93.0253 22.4468L92.7641 25.11ZM113.143 25.3868H110.759L110.275 24.6434C109.117 25.3224 107.797 25.6749 106.455 25.6635C101.684 25.6635 99.7819 22.3264 99.7819 18.0647C99.7819 13.2143 102.375 10.4221 106.853 10.4221C110.137 10.4221 112.267 12.0042 112.869 14.9769L108.658 15.6859C108.363 14.2756 107.792 13.5236 106.616 13.5236C105.114 13.5236 104.109 15.0972 104.109 17.8782C104.109 20.9566 105.181 22.5654 107.428 22.5654C108.023 22.5627 108.612 22.4394 109.159 22.2027V20.1814H107.596V17.8464H113.143V25.3868ZM125.179 25.3868H114.993V10.71H124.832V13.5529H119.057V16.5272H123.778V19.3521H119.057V22.5318H125.37L125.179 25.3868ZM139.216 25.3868H136.656L130.726 18.3483C130.46 18.0671 130.249 17.7386 130.103 17.3798V25.3868H126.769V10.71H129.239L135.223 17.757C135.495 18.0627 135.722 18.4063 135.896 18.7771V10.71H139.218L139.216 25.3868ZM151.523 25.3868H141.34V10.71H151.176V13.5529H145.4V16.5272H150.137V19.3521H145.398V22.5318H151.71L151.523 25.3868ZM166.026 25.11C165.338 25.4538 164.581 25.6372 163.812 25.6463C162.985 25.6825 162.167 25.455 161.477 24.9966C160.838 24.4789 160.299 23.849 159.886 23.1377L158.264 20.5174H157.175V25.3859H153.114V10.71H158.614C160.173 10.5965 161.736 10.8751 163.16 11.5204C163.854 11.9114 164.424 12.4905 164.804 13.191C165.184 13.8916 165.359 14.6851 165.308 15.4805C165.383 16.4276 165.158 17.3743 164.664 18.1861C164.171 18.9979 163.434 19.6335 162.558 20.0026L163.735 21.8847C164.184 22.5722 164.531 22.7845 165.136 22.7845C165.546 22.7805 165.947 22.6636 166.295 22.4468L166.026 25.11ZM177.417 25.3868L176.535 22.7063H171.646L170.851 25.3868H166.895L170.752 13.552L171.548 10.71H176.383L181.658 25.3868H177.417ZM192.733 25.3868H182.692V10.71H186.756V22.5344H192.907L192.733 25.3868ZM189.763 13.4755C189.924 13.4714 190.083 13.4354 190.23 13.3696C190.377 13.3038 190.51 13.2095 190.621 13.0922C190.731 12.9748 190.818 12.8367 190.875 12.6858C190.932 12.5349 190.958 12.3743 190.953 12.2131C190.964 11.886 190.845 11.5678 190.622 11.3284C190.399 11.089 190.09 10.9479 189.763 10.936H189.745C189.421 10.9569 189.118 11.1009 188.896 11.3385C188.675 11.5761 188.553 11.8892 188.555 12.2139C188.558 12.5385 188.684 12.85 188.908 13.0845C189.133 13.3191 189.438 13.459 189.763 13.4755ZM189.209 11.4001C189.364 11.3775 189.52 11.366 189.677 11.3657C189.857 11.3538 190.036 11.396 190.192 11.4869C190.253 11.5392 190.298 11.607 190.323 11.6831C190.348 11.7592 190.352 11.8406 190.335 11.9187C190.317 11.9969 190.278 12.0687 190.223 12.1266C190.168 12.1845 190.098 12.2263 190.02 12.2474V12.2655C190.176 12.2827 190.278 12.421 190.297 12.6634C190.312 12.8075 190.352 12.9479 190.415 13.0785H190.141C190.068 12.9463 190.027 12.7994 190.019 12.6488C190.015 12.6056 190.002 12.5637 189.982 12.5255C189.961 12.4873 189.933 12.4535 189.899 12.4261C189.866 12.3987 189.827 12.3783 189.785 12.3659C189.744 12.3535 189.7 12.3495 189.657 12.354H189.466V13.0802H189.208L189.209 11.4001ZM190.074 11.8667C190.074 11.7112 189.97 11.5642 189.676 11.5642C189.572 11.5642 189.52 11.5814 189.469 11.5814V12.1434H189.676C189.883 12.1434 190.074 12.0652 190.074 11.8667ZM33.1563 13.5357C31.532 13.5357 30.6331 14.8755 30.6331 18.0656C30.6331 21.2359 31.532 22.5508 33.1563 22.5508C34.7805 22.5508 35.6795 21.2367 35.6795 18.0656C35.6795 14.8755 34.7823 13.5357 33.1563 13.5357ZM173.926 14.2361H173.891C173.81 14.9819 173.654 15.7176 173.425 16.4318L172.404 19.9923H175.618L174.5 16.4688C174.226 15.748 174.034 14.9984 173.929 14.2344M85.0725 13.5468H83.8942V17.9796H85.6242C87.2313 17.9796 87.8535 17.2818 87.8535 15.7168C87.8758 15.4242 87.8396 15.13 87.7471 14.8514C87.6546 14.5729 87.5076 14.3155 87.3146 14.0943C86.6625 13.6331 85.8591 13.4383 85.0682 13.5494M70.9096 14.2369H70.858C70.7847 14.9825 70.6341 15.7183 70.4086 16.4327L69.3713 19.9932H72.6035L71.463 16.4697C71.194 15.7484 71.0086 14.9987 70.9105 14.2352M158.332 13.5477H157.175V17.9805H158.887C160.476 17.9805 161.097 17.2826 161.097 15.7177C161.123 15.4262 161.091 15.1324 161.003 14.8534C160.914 14.5744 160.771 14.3158 160.582 14.0926C159.931 13.6291 159.127 13.434 158.336 13.5477M17.1852 13.5477H16.3026V22.5456H17.5316C20.5738 22.5456 21.0749 20.8173 21.0749 17.9117C21.0749 14.2481 19.6586 13.5477 17.1852 13.5477Z" fill="white" style="fill:white;fill-opacity:1;"/>
</g>
</svg>
