<svg width="185" height="40" viewBox="0 0 185 40" fill="none" xmlns="http://www.w3.org/2000/svg">
<g clip-path="url(#clip0_66_78971)">
<path d="M38.7311 0.72998C31.9292 0.72998 26.5327 6.06514 26.5327 12.9166C26.5327 19.8242 31.9292 25.1032 38.7311 25.1032C45.5329 25.1032 50.9857 19.7681 50.9857 12.9166C50.9857 6.06514 45.5329 0.72998 38.7311 0.72998ZM38.7311 19.3188C35.1896 19.3188 32.4914 16.6793 32.4914 12.9166C32.4914 9.15392 35.2458 6.51442 38.7311 6.51442C42.2725 6.51442 45.027 9.15392 45.027 12.9166C45.027 16.6793 42.2725 19.3188 38.7311 19.3188Z" fill="white" style="fill:white;fill-opacity:1;"/>
<path d="M13.4913 8.42432C10.1185 8.42432 7.64506 9.65983 6.01486 11.7939V9.04207H0V39.0313H5.95865V29.4842C7.64506 31.6182 10.0622 32.8537 13.4351 32.8537C19.6186 32.8537 24.734 27.5186 24.734 20.6671C24.7902 13.7033 19.6748 8.42432 13.4913 8.42432ZM12.367 27.1255C8.71312 27.1255 5.95865 24.486 5.95865 20.6109C5.95865 16.7359 8.71312 14.0964 12.367 14.0964C16.0771 14.0964 18.7754 16.7359 18.7754 20.6109C18.7754 24.486 16.0771 27.1255 12.367 27.1255Z" fill="white" style="fill:white;fill-opacity:1;"/>
<path d="M67.2315 8.42432C63.8587 8.42432 61.3853 9.65983 59.7551 11.7939V9.04207H53.7402V39.0313H59.6989V29.4842C61.3853 31.6182 63.8025 32.8537 67.1753 32.8537C73.3588 32.8537 78.4743 27.5186 78.4743 20.6671C78.5305 13.7033 73.415 8.42432 67.2315 8.42432ZM66.1072 27.1255C62.4534 27.1255 59.6989 24.486 59.6989 20.6109C59.6989 16.7359 62.4534 14.0964 66.1072 14.0964C69.8173 14.0964 72.5156 16.7359 72.5156 20.6109C72.5718 24.486 69.8173 27.1255 66.1072 27.1255Z" fill="white" style="fill:white;fill-opacity:1;"/>
<path d="M162.176 0.0561523H156.218V32.2356H162.176V0.0561523Z" fill="#989899" style="fill:#989899;fill:color(display-p3 0.5961 0.5961 0.6000);fill-opacity:1;"/>
<path d="M117.318 8.42393C114.226 8.42393 111.809 9.60328 110.404 11.6812V0.0561523H104.445V32.2356H110.404V19.712C110.404 15.6685 112.596 13.9837 115.519 13.9837C118.217 13.9837 120.129 15.6124 120.129 18.7573V32.2356H126.087V17.9711C126.031 11.8497 122.209 8.42393 117.318 8.42393Z" fill="#989899" style="fill:#989899;fill:color(display-p3 0.5961 0.5961 0.6000);fill-opacity:1;"/>
<path d="M141.434 8.42432C134.182 8.42432 129.235 13.7595 129.235 20.6109C129.235 27.5186 134.126 32.7976 141.94 32.7976C146.381 32.7976 149.866 31.0005 152.058 27.8555L147.224 25.1037C146.212 26.4515 144.188 27.4063 141.827 27.4063C138.96 27.4063 136.262 26.1146 135.419 23.082H152.901C153.014 22.2957 153.126 21.5095 153.126 20.6109C153.126 13.8156 148.292 8.42432 141.434 8.42432ZM135.363 18.4769C136.037 15.1635 138.398 13.8156 141.434 13.8156C144.132 13.8156 146.549 15.1635 147.168 18.4769H135.363Z" fill="#989899" style="fill:#989899;fill:color(display-p3 0.5961 0.5961 0.6000);fill-opacity:1;"/>
<path d="M87.6933 15.6127C87.7495 14.2088 89.3797 13.3102 91.4596 13.4787C93.9892 13.7033 95.4508 14.8827 96.1815 16.3428L100.566 13.1979C98.936 10.1091 95.3945 8.42432 91.2909 8.42432C86.1193 8.42432 81.7346 11.0077 81.7346 15.7251C81.7346 24.0367 95.3383 21.8465 95.3383 25.4407C95.3383 26.7885 93.4833 27.6309 91.1223 27.4063C88.1992 27.1255 86.4004 25.6653 85.4447 23.9805L80.8352 27.2378C83.3086 31.0566 86.7939 32.7976 91.2347 32.7976C96.6312 32.7976 101.409 30.3827 101.409 25.3845C101.409 16.7921 87.5808 19.2631 87.6933 15.6127Z" fill="#989899" style="fill:#989899;fill:color(display-p3 0.5961 0.5961 0.6000);fill-opacity:1;"/>
<path d="M179.49 5.78443H181.907V0.0561523H179.49C172.126 0.0561523 168.585 3.42573 168.585 9.82792V10.0526H165.268V15.7247H168.585V32.1794H174.543V15.7247H181.851V9.9964H174.543V9.77176C174.6 6.62682 176.342 5.78443 179.49 5.78443Z" fill="#989899" style="fill:#989899;fill:color(display-p3 0.5961 0.5961 0.6000);fill-opacity:1;"/>
<path d="M184.606 1.01087C184.606 1.57247 184.156 2.02175 183.65 2.02175C183.088 2.02175 182.694 1.57247 182.694 1.01087C182.694 0.449277 183.144 0 183.65 0C184.156 0 184.606 0.449277 184.606 1.01087ZM184.437 1.01087C184.437 0.561596 184.1 0.224638 183.65 0.224638C183.2 0.224638 182.863 0.561596 182.863 1.01087C182.863 1.46015 183.2 1.79711 183.65 1.79711C184.1 1.79711 184.437 1.46015 184.437 1.01087ZM183.762 1.12319L183.987 1.46015H183.819L183.594 1.12319H183.538V1.46015H183.369V0.505436H183.762C183.987 0.505436 184.1 0.673915 184.1 0.786234C183.987 1.01087 183.931 1.12319 183.762 1.12319ZM183.481 0.673915V0.954713H183.65C183.762 0.954713 183.819 0.898553 183.819 0.786234C183.819 0.730075 183.762 0.617756 183.65 0.617756H183.481V0.673915Z" fill="#989899" style="fill:#989899;fill:color(display-p3 0.5961 0.5961 0.6000);fill-opacity:1;"/>
</g>
<defs>
<clipPath id="clip0_66_78971">
<rect width="184.606" height="39.0309" fill="white" style="fill:white;fill-opacity:1;"/>
</clipPath>
</defs>
</svg>
