<svg width="218" height="39" viewBox="0 0 218 39" fill="none" xmlns="http://www.w3.org/2000/svg">
<g clip-path="url(#clip0_66_78925)">
<path d="M37.6988 0.00537109H12.5562V12.6017H-0.000244141V37.8239H25.1423V25.2276H37.6988V0.00537109Z" fill="white" style="fill:white;fill-opacity:1;"/>
<path opacity="0.4" d="M-0.00012207 12.6016V25.2275H12.5564V37.8238H25.1424V12.6016H-0.00012207Z" fill="#3A3D47" style="fill:#3A3D47;fill:color(display-p3 0.2275 0.2392 0.2784);fill-opacity:1;"/>
<path d="M44.7467 32.5953L50.2254 28.2876C51.7653 30.9613 54.2233 32.5062 57.0367 32.5062C60.0869 32.5062 61.7157 30.5157 61.7157 28.347C61.7157 25.7624 58.5766 24.9306 55.2302 23.8908C51.0249 22.5836 46.3163 20.9497 46.3163 14.9189C46.3163 9.86852 50.6992 5.85791 56.7701 5.85791C61.8934 5.85791 64.8252 7.78894 67.3721 10.433L62.4265 14.1762C61.1234 12.2452 59.2873 11.2054 56.8294 11.2054C54.0456 11.2054 52.5353 12.7205 52.5353 14.711C52.5353 17.1173 55.5559 17.9491 58.9024 19.0781C63.1668 20.4743 67.994 22.346 67.994 28.4064C67.994 33.4271 64.0256 38.2399 57.0959 38.2399C51.3803 38.2696 47.5897 35.8335 44.7467 32.5953ZM92.8996 16.2261H98.7633V18.6324C100.155 16.8499 102.258 15.7804 104.716 15.7804C109.78 15.7804 112.86 19.0484 112.86 24.6335V37.7942H106.878V25.4356C106.878 22.5539 105.545 20.8606 102.909 20.8606C100.659 20.8606 98.8225 22.4054 98.8225 26.0298V37.8239H92.9292V16.2261H92.8996ZM114.192 27.0399C114.192 19.4049 119.789 15.8102 124.646 15.8102C127.43 15.8102 129.651 16.8499 131.073 18.3651V6.30353H136.966V37.8239H131.073V35.4176C129.651 37.1109 127.371 38.2696 124.587 38.2696C120.026 38.2696 114.192 34.6155 114.192 27.0399ZM131.25 26.9804C131.25 23.772 128.94 21.1873 125.742 21.1873C122.484 21.1873 119.967 23.6531 119.967 26.9804C119.967 30.3078 122.455 32.8032 125.742 32.8032C128.911 32.8032 131.25 30.1889 131.25 26.9804ZM138.358 22.0786C138.358 13.1067 145.11 5.88762 154.409 5.88762C159.058 5.88762 162.967 7.58099 165.81 10.2547C166.965 11.3539 167.942 12.6017 168.712 13.9682L163.471 17.1767C161.546 13.582 158.555 11.7401 154.468 11.7401C148.752 11.7401 144.31 16.434 144.31 22.1083C144.31 27.9014 148.663 32.4765 154.675 32.4765C159.236 32.4765 162.464 29.8918 163.589 25.8812H153.727V20.0881H170.045V22.4945C170.045 30.9613 164.033 38.2399 154.675 38.2399C144.843 38.2696 138.358 30.7831 138.358 22.0786ZM171.526 16.2261H177.389V19.7613C178.455 17.5035 180.41 16.2261 183.342 16.2261H185.711L183.549 21.9895H181.95C178.811 21.9895 177.419 23.6234 177.419 27.634V37.8239H171.526V16.2261ZM187.221 16.2261H193.115V37.8239H187.221V21.9895H185.089L187.221 16.2261ZM190.183 12.9582C192.137 12.9582 193.707 11.3836 193.707 9.42289C193.707 7.46215 192.137 5.88762 190.183 5.88762C188.228 5.88762 186.659 7.46215 186.659 9.42289C186.659 11.3539 188.228 12.9582 190.183 12.9582ZM194.506 27.0399C194.506 19.4049 200.104 15.8102 204.96 15.8102C207.744 15.8102 209.965 16.8499 211.387 18.3651V6.30353H217.28V37.8239H211.387V35.4176C209.965 37.1109 207.685 38.2696 204.901 38.2696C200.311 38.2696 194.506 34.6155 194.506 27.0399ZM211.564 26.9804C211.564 23.772 209.254 21.1873 206.056 21.1873C202.798 21.1873 200.281 23.6531 200.281 26.9804C200.281 30.3078 202.769 32.8032 206.056 32.8032C209.225 32.8032 211.564 30.1889 211.564 26.9804ZM91.5077 26.9804C91.5077 20.7714 86.9768 15.8102 80.4024 15.8102C74.213 15.8102 69.2081 20.8308 69.2081 27.0399C69.2081 33.2489 73.8576 38.2696 80.5801 38.2696C85.2295 38.2696 88.5759 36.0117 90.4416 32.8032L85.7626 30.0107C84.7853 31.912 82.8604 33.1003 80.6097 33.1003C77.5002 33.1003 75.5752 31.5555 74.8941 29.1789H91.5077V26.9804ZM75.1606 24.3958C76.0787 22.3757 77.9444 20.9794 80.4616 20.9794C82.9492 20.9794 84.8149 22.138 85.5849 24.3958H75.1606Z" fill="white" style="fill:white;fill-opacity:1;"/>
<path d="M-0.00012207 25.2275H12.5564V37.8238H-0.00012207V25.2275Z" fill="#95989D" style="fill:#95989D;fill:color(display-p3 0.5843 0.5961 0.6157);fill-opacity:1;"/>
<path d="M25.1413 12.6016V0.00537109H12.5552V25.2276H37.6977V12.6016H25.1413Z" fill="#82858B" style="fill:#82858B;fill:color(display-p3 0.5098 0.5216 0.5451);fill-opacity:1;"/>
<path d="M25.1417 0.00537109H37.6982V12.6016H25.1417V0.00537109Z" fill="#95979D" style="fill:#95979D;fill:color(display-p3 0.5843 0.5922 0.6157);fill-opacity:1;"/>
</g>
<defs>
<clipPath id="clip0_66_78925">
<rect width="217.28" height="38.2754" fill="white" style="fill:white;fill-opacity:1;"/>
</clipPath>
</defs>
</svg>
