<svg width="223" height="47" viewBox="0 0 223 47" fill="none" xmlns="http://www.w3.org/2000/svg">
<path fill-rule="evenodd" clip-rule="evenodd" d="M48.6113 35.5557C44.913 35.5557 41.1798 34.2661 38.2489 31.6522L41.424 27.8532C43.6218 29.6655 45.9248 30.8156 48.7159 30.8156C50.9139 30.8156 52.2398 29.9444 52.2398 28.5154V28.4458C52.2398 27.0865 51.4023 26.3894 47.3203 25.344C42.4008 24.0892 39.2257 22.7301 39.2257 17.8855V17.8159C39.2257 13.3896 42.7846 10.4619 47.774 10.4619C51.3327 10.4619 54.3682 11.5773 56.8454 13.564L54.0541 17.6067C51.891 16.1079 49.7626 15.202 47.7041 15.202C45.6456 15.202 44.5639 16.143 44.5639 17.328V17.3976C44.5639 19.0007 45.6107 19.5237 49.8325 20.6042C54.7867 21.8935 57.5781 23.6709 57.5781 27.9228V27.9926C57.5781 32.837 53.8796 35.5557 48.6113 35.5557Z" fill="white" style="fill:white;fill-opacity:1;"/>
<path fill-rule="evenodd" clip-rule="evenodd" d="M86.4999 35.3814H81.8246L76.3118 19.419L70.7993 35.3814H66.124L57.7852 10.8107H63.5422L68.6013 27.3305L74.0788 10.7409H78.6844L84.1623 27.3305L89.2213 10.8107H94.8385L86.4999 35.3814Z" fill="white" style="fill:white;fill-opacity:1;"/>
<path fill-rule="evenodd" clip-rule="evenodd" d="M96.8589 35.207H102.232V10.8106H96.8589V35.207Z" fill="white" style="fill:white;fill-opacity:1;"/>
<path fill-rule="evenodd" clip-rule="evenodd" d="M124.245 35.207V19.2796L117.371 29.7003H117.232L110.428 19.3841V35.207H105.16V10.8107H110.951L117.371 21.1268L123.791 10.8107H129.583V35.207H124.245Z" fill="white" style="fill:white;fill-opacity:1;"/>
<path fill-rule="evenodd" clip-rule="evenodd" d="M132.51 35.207V10.8107H137.883V30.3278H150.06L148.104 35.207H132.51Z" fill="white" style="fill:white;fill-opacity:1;"/>
<path fill-rule="evenodd" clip-rule="evenodd" d="M163.664 17.084L160.42 24.9952H166.909L163.664 17.084ZM171.061 35.2071L168.828 29.7353H158.501L156.268 35.2071H150.79L161.257 10.6364H166.212L176.679 35.2071H171.061Z" fill="white" style="fill:white;fill-opacity:1;"/>
<path fill-rule="evenodd" clip-rule="evenodd" d="M196.354 35.207L184.527 19.6976V35.207H179.223V10.8107H184.178L195.622 25.8317V10.8107H200.925V35.207H196.354Z" fill="white" style="fill:white;fill-opacity:1;"/>
<path fill-rule="evenodd" clip-rule="evenodd" d="M204.097 35.207V10.8107H222.519V15.5854H209.435V20.5342H220.948V25.3092H209.435V30.4323H222.693V35.207H204.097Z" fill="white" style="fill:white;fill-opacity:1;"/>
<path fill-rule="evenodd" clip-rule="evenodd" d="M23.2139 13.386C22.6732 12.9521 21.9037 12.9521 21.363 13.386L14.8206 18.6366C14.0831 19.2283 14.0831 20.351 14.8206 20.9429L21.5946 26.3793C21.6242 26.4029 21.6666 26.4029 21.6962 26.3793L30.4711 19.3369C30.5118 19.3044 30.5118 19.2428 30.4711 19.2103L23.2139 13.386Z" fill="#70737A" style="fill:#70737A;fill:color(display-p3 0.4392 0.4510 0.4784);fill-opacity:1;"/>
<path fill-rule="evenodd" clip-rule="evenodd" d="M14.8247 46.187L30.2069 33.8424C30.4277 33.6652 30.556 33.3976 30.556 33.1142V19.2695L13.6562 32.8325C13.4354 33.0094 13.3068 33.2773 13.3068 33.5604V45.4591C13.3068 46.2427 14.2138 46.6774 14.8247 46.187" fill="#545760" style="fill:#545760;fill:color(display-p3 0.3294 0.3412 0.3765);fill-opacity:1;"/>
<path fill-rule="evenodd" clip-rule="evenodd" d="M30.5556 19.2661L21.6459 26.4198L19.2039 24.4598L30.5556 19.2661Z" fill="#7F8288" style="fill:#7F8288;fill:color(display-p3 0.4980 0.5098 0.5333);fill-opacity:1;"/>
<path fill-rule="evenodd" clip-rule="evenodd" d="M7.34025 33.0085C7.88089 33.4424 8.65046 33.4424 9.1911 33.0085L15.7335 27.7579C16.471 27.1662 16.471 26.0435 15.7335 25.4519L8.95947 20.0155C8.9299 19.9916 8.88751 19.9916 8.85794 20.0155L0.0829845 27.0578C0.0423255 27.0901 0.0423255 27.1517 0.0829845 27.1842L7.34025 33.0085Z" fill="#9A9DA2" style="fill:#9A9DA2;fill:color(display-p3 0.6039 0.6157 0.6353);fill-opacity:1;"/>
<path fill-rule="evenodd" clip-rule="evenodd" d="M15.7313 0.207244L0.349175 12.5519C0.128384 12.7291 0 12.9969 0 13.2801V27.1247L16.8999 13.562C17.1207 13.3848 17.2493 13.1169 17.2493 12.8338V0.935429C17.2493 0.151798 16.3422 -0.283141 15.7313 0.207244" fill="#83888E" style="fill:#83888E;fill:color(display-p3 0.5137 0.5333 0.5569);fill-opacity:1;"/>
<path fill-rule="evenodd" clip-rule="evenodd" d="M0 27.1281L8.90975 19.9746L11.3518 21.9344L0 27.1281Z" fill="#A8AAAF" style="fill:#A8AAAF;fill:color(display-p3 0.6588 0.6667 0.6863);fill-opacity:1;"/>
</svg>
