<svg width="125" height="190" viewBox="0 0 125 190" fill="none" xmlns="http://www.w3.org/2000/svg">
<g id="sw-mark-color">
<path id="Fill 1" fill-rule="evenodd" clip-rule="evenodd" d="M94.9682 54.8197C92.7565 53.0425 89.6083 53.0425 87.3966 54.8197L60.6325 76.3225C57.6153 78.7456 57.6153 83.3434 60.6325 85.7675L88.3442 108.031C88.4651 108.128 88.6385 108.128 88.7595 108.031L124.657 79.1906C124.823 79.0574 124.823 78.8051 124.657 78.6719L94.9682 54.8197Z" fill="#19CCC0" style="fill:#19CCC0;fill:color(display-p3 0.0980 0.8000 0.7530);fill-opacity:1;"/>
<path id="Fill 23" fill-rule="evenodd" clip-rule="evenodd" d="M60.6447 189.151L123.571 138.596C124.474 137.87 125 136.774 125 135.614V78.9153L55.8645 134.46C54.9613 135.185 54.4351 136.282 54.4351 137.441V186.17C54.4351 189.379 58.1457 191.159 60.6447 189.151Z" fill="#00FFF4" style="fill:#00FFF4;fill:color(display-p3 0.0000 1.0000 0.9570);fill-opacity:1;"/>
<path id="Fill 24" fill-rule="evenodd" clip-rule="evenodd" d="M125 78.9019L88.5514 108.199L78.5615 100.172L125 78.9019Z" fill="#27AFA2" style="fill:#27AFA2;fill:color(display-p3 0.1530 0.6860 0.6350);fill-opacity:1;"/>
<path id="Fill 25" fill-rule="evenodd" clip-rule="evenodd" d="M30.032 135.18C32.2437 136.957 35.3919 136.957 37.6036 135.18L64.3677 113.677C67.3848 111.254 67.3848 106.656 64.3677 104.233L36.656 81.9697C36.535 81.8718 36.3616 81.8718 36.2407 81.9697L0.343498 110.81C0.177167 110.942 0.177167 111.195 0.343498 111.328L30.032 135.18Z" fill="#028ACF" style="fill:#028ACF;fill:color(display-p3 0.0080 0.5410 0.8120);fill-opacity:1;"/>
<path id="Fill 26" fill-rule="evenodd" clip-rule="evenodd" d="M64.3553 0.848731L1.42892 51.4041C0.52569 52.1297 0.000488281 53.2266 0.000488281 54.3862V111.084L69.1356 55.5407C70.0388 54.8151 70.565 53.7181 70.565 52.5586V3.83088C70.565 0.621663 66.8543 -1.15956 64.3553 0.848731Z" fill="#02AAFF" style="fill:#02AAFF;fill:color(display-p3 0.0080 0.6670 1.0000);fill-opacity:1;"/>
<path id="Fill 27" fill-rule="evenodd" clip-rule="evenodd" d="M0 111.099L36.4486 81.803L46.4385 89.8291L0 111.099Z" fill="#0578A5" style="fill:#0578A5;fill:color(display-p3 0.0200 0.4710 0.6470);fill-opacity:1;"/>
</g>
</svg>
